#N canvas 236 80 542 460 10;
#X obj 63 -32 inlet count;
#X floatatom 63 -5 5 0 0 0 - - -;
#X obj 111 140 o-bit;
#X obj 126 160 o-bit;
#X obj 141 160 o-bit;
#X obj 126 140 o-bit;
#X obj 140 140 o-bit;
#X obj 155 140 o-bit;
#X obj 170 140 o-bit;
#X obj 111 160 o-bit;
#X obj 156 160 o-bit;
#X obj 171 160 o-bit;
#X obj 119 235 outlet;
#X obj 139 -74 inlet;
#X obj 154 -50 inlet;
#X obj 169 -28 inlet;
#X obj 184 -4 inlet;
#X obj 202 17 inlet;
#X obj 233 -80 inlet;
#X obj 248 -56 inlet;
#X obj 263 -34 inlet;
#X obj 278 -10 inlet;
#X obj 296 11 inlet;
#X obj 63 22 t f f;
#X obj 111 119 hradio 15 1 0 5 empty empty empty 0 -8 0 10 -191407
-1 -1 0;
#X obj 184 234 outlet;
#X obj 65 48 sel 0 1 2 3 4;
#X connect 0 0 1 0;
#X connect 1 0 23 0;
#X connect 2 0 12 0;
#X connect 3 0 25 0;
#X connect 4 0 25 0;
#X connect 5 0 12 0;
#X connect 6 0 12 0;
#X connect 7 0 12 0;
#X connect 8 0 12 0;
#X connect 9 0 25 0;
#X connect 10 0 25 0;
#X connect 11 0 25 0;
#X connect 13 0 2 1;
#X connect 14 0 5 1;
#X connect 15 0 6 1;
#X connect 16 0 7 1;
#X connect 17 0 8 1;
#X connect 18 0 9 1;
#X connect 19 0 3 1;
#X connect 20 0 4 1;
#X connect 21 0 10 1;
#X connect 22 0 11 1;
#X connect 23 0 26 0;
#X connect 23 1 24 0;
#X connect 26 0 2 0;
#X connect 26 0 9 0;
#X connect 26 1 5 0;
#X connect 26 1 3 0;
#X connect 26 2 6 0;
#X connect 26 2 4 0;
#X connect 26 3 7 0;
#X connect 26 3 10 0;
#X connect 26 4 8 0;
#X connect 26 4 11 0;
#X coords 0 -1 1 1 100 80 1 100 100;
