#N canvas 924 353 450 300 10;
#X obj 100 100 tgl 15 0 empty empty empty 17 7 0 10 -258699 -1 -262144
0 1;
#X obj 38 19 inlet;
#X obj 133 13 inlet;
#X obj 100 150 outlet;
#X obj 133 37 sel 0;
#X msg 133 58 0;
#X msg 162 57 1;
#X floatatom 100 124 5 0 0 0 - - -;
#X obj 40 178 outlet;
#X obj 40 149 v \$0-vum;
#X floatatom 181 36 5 0 0 0 - - -;
#X msg -19 125 color \$1;
#X obj 38 40 t b b;
#X obj 27 77 del 200;
#X msg 27 100 0;
#X obj 87 -16 r tgl-del;
#X obj -21 56 loadbang;
#X msg -18 97 13;
#X connect 0 0 7 0;
#X connect 1 0 12 0;
#X connect 2 0 4 0;
#X connect 2 0 10 0;
#X connect 4 0 5 0;
#X connect 4 1 6 0;
#X connect 5 0 0 0;
#X connect 6 0 0 0;
#X connect 7 0 3 0;
#X connect 7 0 9 0;
#X connect 9 0 8 0;
#X connect 11 0 0 0;
#X connect 12 0 13 0;
#X connect 12 1 17 0;
#X connect 12 1 9 0;
#X connect 13 0 14 0;
#X connect 14 0 11 0;
#X connect 15 0 13 1;
#X connect 16 0 14 0;
#X connect 17 0 11 0;
#X coords 0 -1 1 1 15 15 2 100 100;
