#N canvas 605 202 633 455 10;
#X obj 100 100 tgl 15 0 empty empty empty 17 7 0 10 -258699 -258699
-258699 4096 4096;
#X obj -139 -151 inlet;
#X obj 84 -41 inlet;
#X obj 20 205 outlet;
#X obj 148 51 sel 0;
#X msg 148 72 0;
#X floatatom 20 179 5 0 0 0 - - -;
#X obj -74 203 outlet;
#X obj -139 -123 t b b;
#X obj -80 -165 r tgl-del;
#X msg 92 -150 0;
#X msg 177 72 13;
#X msg 138 154 0;
#X msg 178 160 13;
#X msg 36 -114 color \$1 \$1 \$1;
#X obj -167 -138 bng 15 250 50 0 empty empty empty 17 7 0 10 -262144
-1 -1;
#X obj 84 -6 tgl 15 0 empty empty empty 17 7 0 10 -262144 -1 -1 4096
4096;
#X obj -74 174 f;
#X msg 121 -18 1;
#X msg 138 -55 0;
#X obj -150 -53 f;
#X obj 97 26 t f f;
#X obj 92 -170 loadbang;
#X obj -150 -86 del 200;
#X msg 35 -143 15;
#X msg 18 149 0;
#X msg 49 148 1;
#X obj 20 127 sel 0;
#X obj 138 120 sel 0;
#X connect 0 0 4 0;
#X connect 0 0 27 0;
#X connect 0 0 28 0;
#X connect 1 0 8 0;
#X connect 2 0 16 0;
#X connect 4 0 5 0;
#X connect 4 1 11 0;
#X connect 5 0 20 1;
#X connect 6 0 3 0;
#X connect 6 0 17 1;
#X connect 8 0 23 0;
#X connect 8 1 24 0;
#X connect 8 1 17 0;
#X connect 10 0 14 0;
#X connect 11 0 20 1;
#X connect 12 0 14 0;
#X connect 13 0 14 0;
#X connect 14 0 0 0;
#X connect 15 0 8 0;
#X connect 16 0 21 0;
#X connect 17 0 7 0;
#X connect 18 0 16 0;
#X connect 19 0 16 0;
#X connect 20 0 14 0;
#X connect 21 0 0 0;
#X connect 21 1 4 0;
#X connect 22 0 10 0;
#X connect 23 0 20 0;
#X connect 24 0 14 0;
#X connect 25 0 6 0;
#X connect 26 0 6 0;
#X connect 27 0 25 0;
#X connect 27 1 26 0;
#X connect 28 0 12 0;
#X connect 28 1 13 0;
#X coords 0 -1 1 1 15 15 2 100 100;
