#N canvas 600 120 732 674 10;
#X obj 164 296 osc~;
#X obj 224 288 line~;
#X obj 164 272 line~;
#X obj 164 324 *~;
#X obj 288 251 osc~;
#X obj 332 253 line~;
#X obj 288 223 line~;
#X obj 288 278 *~;
#X obj 288 472 hip~ 30;
#X obj 456 354 noise~;
#X obj 456 383 abs~;
#X obj 288 440 +~;
#X obj 303 411 expr~ ($v1 * $v2) * 0.0625;
#X obj 288 527 outlet~;
#X obj 164 162 t b b;
#X obj 288 170 t b b;
#X obj 164 78 inlet;
#X obj 164 125 t b b;
#X obj 164 102 sel 1;
#X obj 164 187 random 40;
#X obj 164 214 + 60;
#X msg 164 238 \$1 \, 0 80;
#X obj 330 298 delread~ \$0-bd 125;
#X obj 330 349 delwrite~ \$0-bd 250;
#X msg 224 259 1 \, 0 100;
#X obj 164 351 *~ 0.35;
#X msg 332 224 1 \, 0 50;
#X msg 288 193 100 \, 0 50;
#X obj 288 373 *~ 0.5;
#X obj 330 324 *~ 0.15;
#X obj 288 503 *~ 1;
#X connect 0 0 3 0;
#X connect 1 0 3 1;
#X connect 2 0 0 0;
#X connect 3 0 25 0;
#X connect 4 0 7 0;
#X connect 5 0 7 1;
#X connect 6 0 4 0;
#X connect 7 0 23 0;
#X connect 7 0 28 0;
#X connect 8 0 30 0;
#X connect 9 0 10 0;
#X connect 10 0 12 1;
#X connect 11 0 8 0;
#X connect 12 0 11 1;
#X connect 14 0 19 0;
#X connect 14 1 24 0;
#X connect 15 0 27 0;
#X connect 15 1 26 0;
#X connect 16 0 18 0;
#X connect 17 0 14 0;
#X connect 17 1 15 0;
#X connect 18 0 17 0;
#X connect 19 0 20 0;
#X connect 20 0 21 0;
#X connect 21 0 2 0;
#X connect 22 0 28 0;
#X connect 22 0 29 0;
#X connect 24 0 1 0;
#X connect 25 0 30 0;
#X connect 26 0 5 0;
#X connect 27 0 6 0;
#X connect 28 0 11 0;
#X connect 28 0 12 0;
#X connect 29 0 23 0;
#X connect 30 0 13 0;
