#N canvas 471 22 553 690 10;
#X obj 182 102 cnv 15 306 20 empty empty empty 20 12 0 14 -28736 -66577
0;
#X obj 102 116 cnv 15 386 20 empty empty empty 20 12 0 14 -4160 -66577
0;
#X obj 79 -456 f;
#X obj 106 -456 + 1;
#X obj 260 -377 outlet;
#X obj 412 119 tgl 15 0 empty empty empty 17 7 0 10 -258113 -1 -1 0
1;
#X floatatom 433 119 4 0 0 0 - - -;
#X obj 104 119 t-bit;
#X obj 121 119 t-bit;
#X obj 138 119 t-bit;
#X obj 155 119 t-bit;
#X obj 184 119 t-bit;
#X obj 201 119 t-bit;
#X obj 218 119 t-bit;
#X obj 235 119 t-bit;
#X obj 396 -466 sel 0;
#X obj 396 -438 f;
#X obj 423 -438 + 1;
#X obj 40 179 sel 1;
#X msg 40 205 0;
#X obj 93 -514 r \$0-reset;
#X obj 411 -501 r \$0-reset;
#X floatatom 396 -410 5 0 0 0 - - -;
#X obj 21 151 t f f f;
#X obj 412 73 inlet;
#X obj 433 22 inlet;
#X obj 79 -428 t f f f f f;
#X obj 79 -483 metro 200;
#X obj 133 -456 % 16;
#X obj 104 74 unpack f f f f f f f f f f f f f f f f;
#X obj 5 -376 sel 0 1 2 3 4 5 6 7 8 9 10 11 12 13 14 15;
#X msg 5 -349 1 0 0 0 0 0 0 0 0 0 0 0 0 0 0 0;
#X msg 18 -325 0 1 0 0 0 0 0 0 0 0 0 0 0 0 0 0;
#X msg 32 -297 0 0 1 0 0 0 0 0 0 0 0 0 0 0 0 0;
#X msg 45 -274 0 0 0 1 0 0 0 0 0 0 0 0 0 0 0 0;
#X msg 59 -250 0 0 0 0 1 0 0 0 0 0 0 0 0 0 0 0;
#X obj 264 119 t-bit;
#X obj 281 119 t-bit;
#X obj 298 119 t-bit;
#X obj 315 119 t-bit;
#X obj 344 119 t-bit;
#X obj 361 119 t-bit;
#X obj 378 119 t-bit;
#X obj 395 119 t-bit;
#X obj 472 23 loadbang;
#X floatatom 433 49 5 0 0 0 - - -;
#X msg 72 -226 0 0 0 0 0 1 0 0 0 0 0 0 0 0 0 0;
#X msg 86 -198 0 0 0 0 0 0 1 0 0 0 0 0 0 0 0 0;
#X msg 99 -175 0 0 0 0 0 0 0 1 0 0 0 0 0 0 0 0;
#X msg 115 -153 0 0 0 0 0 0 0 0 1 0 0 0 0 0 0 0;
#X msg 129 -129 0 0 0 0 0 0 0 0 0 1 0 0 0 0 0 0;
#X msg 214 27 0 0 0 0 0 0 0 0 0 0 0 0 0 0 0 1;
#X msg 195 2 0 0 0 0 0 0 0 0 0 0 0 0 0 0 1 0;
#X msg 181 -22 0 0 0 0 0 0 0 0 0 0 0 0 0 1 0 0;
#X msg 165 -44 0 0 0 0 0 0 0 0 0 0 0 0 1 0 0 0;
#X msg 152 -67 0 0 0 0 0 0 0 0 0 0 0 1 0 0 0 0;
#X msg 138 -95 0 0 0 0 0 0 0 0 0 0 1 0 0 0 0 0;
#X floatatom 461 119 4 0 0 0 - - -;
#X obj 396 -381 s time_\$1;
#X obj 312 -378 s count_\$1;
#X obj 40 228 s \$0-reset;
#X obj 573 -17;
#X obj 91 170 sel 0;
#X obj 91 196 s stop_\$1;
#X msg 472 48 200;
#X connect 2 0 3 0;
#X connect 2 0 26 0;
#X connect 3 0 28 0;
#X connect 5 0 23 0;
#X connect 6 0 27 1;
#X connect 15 0 16 0;
#X connect 16 0 17 0;
#X connect 16 0 22 0;
#X connect 17 0 16 1;
#X connect 18 0 19 0;
#X connect 19 0 60 0;
#X connect 20 0 2 1;
#X connect 21 0 16 1;
#X connect 22 0 57 0;
#X connect 22 0 58 0;
#X connect 23 0 27 0;
#X connect 23 1 18 0;
#X connect 23 2 62 0;
#X connect 24 0 5 0;
#X connect 25 0 45 0;
#X connect 26 0 30 0;
#X connect 26 1 4 0;
#X connect 26 3 59 0;
#X connect 26 4 15 0;
#X connect 27 0 2 0;
#X connect 28 0 2 1;
#X connect 29 0 7 0;
#X connect 29 1 8 0;
#X connect 29 2 9 0;
#X connect 29 3 10 0;
#X connect 29 4 11 0;
#X connect 29 5 12 0;
#X connect 29 6 13 0;
#X connect 29 7 14 0;
#X connect 29 8 36 0;
#X connect 29 9 37 0;
#X connect 29 10 38 0;
#X connect 29 11 39 0;
#X connect 29 12 40 0;
#X connect 29 13 41 0;
#X connect 29 14 42 0;
#X connect 29 15 43 0;
#X connect 30 0 31 0;
#X connect 30 1 32 0;
#X connect 30 2 33 0;
#X connect 30 3 34 0;
#X connect 30 4 35 0;
#X connect 30 5 46 0;
#X connect 30 6 47 0;
#X connect 30 7 48 0;
#X connect 30 8 49 0;
#X connect 30 9 50 0;
#X connect 30 10 56 0;
#X connect 30 11 55 0;
#X connect 30 12 54 0;
#X connect 30 13 53 0;
#X connect 30 14 52 0;
#X connect 30 15 51 0;
#X connect 31 0 29 0;
#X connect 32 0 29 0;
#X connect 33 0 29 0;
#X connect 34 0 29 0;
#X connect 35 0 29 0;
#X connect 44 0 64 0;
#X connect 45 0 6 0;
#X connect 46 0 29 0;
#X connect 47 0 29 0;
#X connect 48 0 29 0;
#X connect 49 0 29 0;
#X connect 50 0 29 0;
#X connect 51 0 29 0;
#X connect 52 0 29 0;
#X connect 53 0 29 0;
#X connect 54 0 29 0;
#X connect 55 0 29 0;
#X connect 56 0 29 0;
#X connect 62 0 63 0;
#X connect 64 0 45 0;
#X coords 0 -1 1 1 390 38 1 100 100;
