#N canvas 280 164 806 587 10;
#X obj 101 101 cnv 15 148 98 empty \$0-otcount ot_count_0 3 10 0 14
-262144 -66577 0;
#X obj 15 -19 f;
#X obj 42 -19 + 1;
#X obj 30 32 outlet;
#X obj 106 125 tgl 30 0 empty empty Start 35 7 0 10 -258113 -1 -1 1
1;
#X floatatom 106 160 6 0 0 1 Ms - -;
#X obj 169 -32 sel 0;
#X obj 169 -4 f;
#X obj 196 -4 + 1;
#X obj 69 271 sel 1;
#X msg 69 297 0;
#X obj 30 -102 r \$0-reset;
#X obj 184 -67 r \$0-reset;
#X floatatom 169 24 5 0 0 0 - - -;
#X obj 50 243 t f f f;
#X obj 102 79 inlet;
#X obj 238 24 inlet;
#X obj 15 9 t f f f f f;
#X obj 15 -46 metro 200;
#X obj 69 -19 % 16;
#X obj 371 56 loadbang;
#X floatatom 106 180 4 0 0 1 Count - -;
#X obj 69 320 s \$0-reset;
#X obj 139 295 sel 0;
#X obj 139 321 s stop_\$1;
#X floatatom 173 178 4 0 0 1 RealTime - -;
#X obj 284 138 expr $f1*$f2*16/1000;
#X floatatom 173 157 4 0 0 1 Step - -;
#X obj 62 217 s tgl-del;
#X obj 169 53 s count_\$1;
#X obj 46 55 s step_\$1;
#X obj 173 216 s realtime;
#X obj 464 27 timer;
#X obj 464 -36 f;
#X obj 489 -36 + 1;
#X obj 514 -35 % 2;
#X obj 464 -15 sel 0 1;
#X floatatom 464 53 5 0 0 0 - - -;
#X obj 464 -79 sel 32;
#X obj 361 -159 key;
#X floatatom 361 -111 5 0 0 0 - - -;
#X obj 361 -64 t b b;
#X msg 388 -43 0;
#X obj 360 -15 tgl 15 0 empty empty empty 17 7 0 10 -262144 -1 -1 0
1;
#X msg 361 -41 1;
#X msg 428 -79 0;
#X obj 361 -136 spigot;
#X obj 175 135 tgl 15 0 empty empty empty 17 7 0 10 -262144 -1 -1 0
1;
#X floatatom 198 135 5 0 0 2 - - -;
#X obj 485 246 int;
#X obj 464 76 expr 60000 / $f1;
#X obj 291 244 expr 1 / $f1 * 60000;
#X floatatom 335 287 5 0 0 0 - - -;
#X msg 371 81 500;
#X msg 304 -68 0;
#X obj 291 222 moses 1000;
#X obj 290 264 moses 50;
#X obj 304 -88 sel 45;
#X obj 361 -87 sel 61;
#X text 403 -111 key + or - or space;
#X obj 485 196 average;
#X floatatom 464 103 5 0 0 0 - - -;
#X obj 464 127 t f b;
#X obj 574 117 f;
#X obj 599 117 + 1;
#X obj 574 140 + 1;
#X floatatom 437 216 5 0 0 0 - - -;
#X msg 601 188 0;
#X obj 574 217 del 2000;
#X msg 574 239 1;
#X floatatom 574 266 5 0 0 0 - - -;
#X obj 574 290 sel 1;
#X msg 618 319 0;
#X msg 574 316 clear;
#X obj 574 165 t f b b f;
#X obj 624 117 % 5;
#X obj 528 220 sel 5;
#X obj 484 270 v \$0-bpm;
#X floatatom 483 292 5 0 0 0 - - -;
#X obj 576 -114 t b f;
#X obj 573 -57 pack f f;
#X obj 632 -129 bng 15 250 50 0 empty empty empty 17 7 0 10 -262144
-1 -1;
#X obj 574 -83 f \$0;
#X obj 579 -160 init \$1;
#X msg 575 -13 \; \$1-otcount label ot_count_\$2;
#X connect 1 0 2 0;
#X connect 1 0 17 0;
#X connect 2 0 19 0;
#X connect 4 0 14 0;
#X connect 5 0 18 1;
#X connect 5 0 26 1;
#X connect 5 0 28 0;
#X connect 6 0 7 0;
#X connect 7 0 8 0;
#X connect 7 0 13 0;
#X connect 8 0 7 1;
#X connect 9 0 10 0;
#X connect 10 0 22 0;
#X connect 11 0 1 1;
#X connect 12 0 7 1;
#X connect 13 0 21 0;
#X connect 13 0 26 0;
#X connect 13 0 29 0;
#X connect 14 0 18 0;
#X connect 14 1 9 0;
#X connect 14 2 23 0;
#X connect 15 0 4 0;
#X connect 16 0 5 0;
#X connect 17 1 3 0;
#X connect 17 2 30 0;
#X connect 17 3 27 0;
#X connect 17 4 6 0;
#X connect 18 0 1 0;
#X connect 19 0 1 1;
#X connect 20 0 53 0;
#X connect 23 0 24 0;
#X connect 25 0 31 0;
#X connect 26 0 25 0;
#X connect 32 0 37 0;
#X connect 33 0 34 0;
#X connect 33 0 36 0;
#X connect 34 0 35 0;
#X connect 35 0 33 1;
#X connect 36 0 32 0;
#X connect 36 1 32 1;
#X connect 37 0 50 0;
#X connect 38 0 33 0;
#X connect 38 0 42 0;
#X connect 39 0 46 0;
#X connect 40 0 38 0;
#X connect 40 0 58 0;
#X connect 41 0 44 0;
#X connect 41 1 42 0;
#X connect 42 0 43 0;
#X connect 43 0 4 0;
#X connect 44 0 43 0;
#X connect 45 0 33 1;
#X connect 46 0 40 0;
#X connect 46 0 57 0;
#X connect 47 0 46 1;
#X connect 48 0 55 0;
#X connect 49 0 77 0;
#X connect 50 0 61 0;
#X connect 51 0 56 0;
#X connect 52 0 5 0;
#X connect 53 0 50 0;
#X connect 53 0 5 0;
#X connect 54 0 4 0;
#X connect 55 0 51 0;
#X connect 56 1 52 0;
#X connect 57 0 54 0;
#X connect 58 0 41 0;
#X connect 58 0 45 0;
#X connect 60 0 66 0;
#X connect 61 0 62 0;
#X connect 62 0 60 0;
#X connect 62 1 63 0;
#X connect 63 0 64 0;
#X connect 63 0 65 0;
#X connect 64 0 75 0;
#X connect 65 0 74 0;
#X connect 66 0 49 0;
#X connect 67 0 70 0;
#X connect 68 0 69 0;
#X connect 69 0 70 0;
#X connect 70 0 71 0;
#X connect 71 0 72 0;
#X connect 71 0 73 0;
#X connect 72 0 63 1;
#X connect 74 0 76 0;
#X connect 74 1 68 0;
#X connect 74 2 67 0;
#X connect 74 3 60 1;
#X connect 75 0 63 1;
#X connect 76 0 77 0;
#X connect 77 0 78 0;
#X connect 78 0 48 0;
#X connect 79 0 82 0;
#X connect 79 1 80 1;
#X connect 80 0 84 0;
#X connect 81 0 83 0;
#X connect 82 0 80 0;
#X connect 83 0 79 0;
#X coords 0 -1 1 1 150 100 1 100 100;
