#N canvas 501 109 588 593 10;
#X obj 102 118 cnv 15 146 80 empty empty empty 20 12 0 14 -199729 -66577
0;
#X obj 15 -19 f;
#X obj 42 -19 + 1;
#X obj 30 32 outlet;
#X obj 106 125 tgl 30 0 empty empty Start 35 7 0 10 -258113 -1 -1 0
1;
#X floatatom 106 159 6 0 0 1 Ms - -;
#X obj 169 -32 sel 0;
#X obj 169 -4 f;
#X obj 196 -4 + 1;
#X obj 69 271 sel 1;
#X msg 69 297 0;
#X obj 30 -102 r \$0-reset;
#X obj 184 -67 r \$0-reset;
#X floatatom 169 24 5 0 0 0 - - -;
#X obj 50 243 t f f f;
#X obj 102 79 inlet;
#X obj 238 24 inlet;
#X obj 15 9 t f f f f f;
#X obj 15 -46 metro 200;
#X obj 69 -19 % 16;
#X obj 371 56 loadbang;
#X floatatom 106 180 4 0 0 1 Count - -;
#X obj 69 320 s \$0-reset;
#X obj 139 295 sel 0;
#X obj 139 321 s stop_\$1;
#X floatatom 173 178 4 0 0 1 RealTime - -;
#X obj 281 141 expr $f1*$f2*16/1000;
#X floatatom 173 157 4 0 0 1 Step - -;
#X obj 62 217 s tgl-del;
#X obj 169 53 s count_\$1;
#X obj 46 55 s step_\$1;
#X obj 173 216 s realtime;
#X obj 464 27 timer;
#X obj 464 -36 f;
#X obj 489 -36 + 1;
#X obj 514 -35 % 2;
#X obj 464 -15 sel 0 1;
#X floatatom 464 53 5 0 0 0 - - -;
#X obj 464 -79 sel 32;
#X obj 361 -159 key;
#X floatatom 361 -111 5 0 0 0 - - -;
#X obj 361 -64 t b b;
#X msg 388 -43 0;
#X obj 360 -15 tgl 15 0 empty empty empty 17 7 0 10 -262144 -1 -1 0
1;
#X msg 361 -41 1;
#X msg 428 -79 0;
#X obj 361 -136 spigot;
#X obj 186 128 tgl 15 0 empty empty empty 17 7 0 10 -262144 -1 -1 1
1;
#X obj 208 128 bng 30 250 50 0 empty empty empty 17 7 0 10 -262144
-1 -1;
#X floatatom 208 101 5 0 0 0 bpm - -;
#X obj 464 109 int;
#X obj 464 76 expr 60000 / $f1;
#X obj 291 244 expr 1 / $f1 * 60000;
#X floatatom 335 287 5 0 0 0 - - -;
#X msg 371 81 500;
#X msg 304 -68 0;
#X obj 291 222 moses 1000;
#X obj 290 264 moses 50;
#X obj 304 -88 sel 45;
#X obj 361 -87 sel 61;
#X obj 319 181 print bpm;
#X connect 1 0 2 0;
#X connect 1 0 17 0;
#X connect 2 0 19 0;
#X connect 4 0 14 0;
#X connect 5 0 18 1;
#X connect 5 0 26 1;
#X connect 5 0 28 0;
#X connect 6 0 7 0;
#X connect 7 0 8 0;
#X connect 7 0 13 0;
#X connect 8 0 7 1;
#X connect 9 0 10 0;
#X connect 10 0 22 0;
#X connect 11 0 1 1;
#X connect 12 0 7 1;
#X connect 13 0 21 0;
#X connect 13 0 26 0;
#X connect 13 0 29 0;
#X connect 14 0 18 0;
#X connect 14 1 9 0;
#X connect 14 2 23 0;
#X connect 15 0 4 0;
#X connect 16 0 5 0;
#X connect 17 1 3 0;
#X connect 17 2 30 0;
#X connect 17 3 27 0;
#X connect 17 4 6 0;
#X connect 18 0 1 0;
#X connect 19 0 1 1;
#X connect 20 0 54 0;
#X connect 23 0 24 0;
#X connect 25 0 31 0;
#X connect 26 0 25 0;
#X connect 32 0 37 0;
#X connect 33 0 34 0;
#X connect 33 0 36 0;
#X connect 34 0 35 0;
#X connect 35 0 33 1;
#X connect 36 0 32 0;
#X connect 36 1 32 1;
#X connect 37 0 51 0;
#X connect 38 0 33 0;
#X connect 38 0 42 0;
#X connect 39 0 46 0;
#X connect 40 0 38 0;
#X connect 40 0 59 0;
#X connect 41 0 44 0;
#X connect 41 1 42 0;
#X connect 42 0 43 0;
#X connect 43 0 4 0;
#X connect 44 0 43 0;
#X connect 45 0 33 1;
#X connect 46 0 40 0;
#X connect 46 0 58 0;
#X connect 47 0 46 1;
#X connect 48 0 33 0;
#X connect 49 0 56 0;
#X connect 49 0 60 0;
#X connect 50 0 49 0;
#X connect 51 0 50 0;
#X connect 52 0 57 0;
#X connect 53 0 5 0;
#X connect 54 0 51 0;
#X connect 55 0 4 0;
#X connect 56 0 52 0;
#X connect 57 1 53 0;
#X connect 58 0 55 0;
#X connect 59 0 41 0;
#X connect 59 0 45 0;
#X coords 0 -1 1 1 150 100 1 100 100;
