#N canvas 118 76 682 704 10;
#X floatatom -44 405 5 0 1023 0 - - -;
#X obj 271 108 r \$0-b;
#N canvas 276 234 1164 456 pack 0;
#X obj -114 49 inlet;
#X obj 301 19 inlet;
#X obj 339 19 inlet;
#X obj 339 49 t b f;
#X obj 384 19 inlet;
#X obj 384 49 t b f;
#X obj 425 19 inlet;
#X obj 425 49 t b f;
#X obj 517 17 inlet;
#X obj 517 50 t b f;
#X obj 560 18 inlet;
#X obj 560 51 t b f;
#X obj 603 18 inlet;
#X obj 603 51 t b f;
#X obj 646 19 inlet;
#X obj 646 52 t b f;
#X obj 118 302 expr $f1+$f2;
#X floatatom 118 330 5 0 0 0 - - -;
#X obj 118 362 outlet;
#X obj 299 175 expr $f1*pow(2 \, 7) + $f2*pow(2 \, 6) + $f3*pow(2 \,
5) +$f4*pow(2 \, 4) + $f5*pow(2 \, 3) + $f6*pow(2 \, 2) + $f7*2 + $f8
;
#X obj 299 243 t b f;
#X floatatom 299 217 5 0 0 0 - - -;
#X floatatom 301 48 5 0 0 0 - - -;
#X obj -72 48 inlet;
#X obj -72 78 t b f;
#X obj -27 48 inlet;
#X obj -27 78 t b f;
#X obj 14 48 inlet;
#X obj 14 78 t b f;
#X obj 106 46 inlet;
#X obj 106 79 t b f;
#X obj 149 47 inlet;
#X obj 149 80 t b f;
#X obj 192 47 inlet;
#X obj 192 80 t b f;
#X obj 235 48 inlet;
#X obj 235 81 t b f;
#X obj -114 120 expr $f1*pow(2 \, 15) + $f2*pow(2 \, 14) + $f3*pow(2
\, 13) +$f4*pow(2 \, 12) + $f5*pow(2 \, 11) + $f6*pow(2 \, 10) + $f7*pow(2
\, 9) + $f8*pow(2 \, 8);
#X connect 0 0 37 0;
#X connect 1 0 22 0;
#X connect 2 0 3 0;
#X connect 3 0 19 0;
#X connect 3 1 19 1;
#X connect 4 0 5 0;
#X connect 5 0 19 0;
#X connect 5 1 19 2;
#X connect 6 0 7 0;
#X connect 7 0 19 0;
#X connect 7 1 19 3;
#X connect 8 0 9 0;
#X connect 9 0 19 0;
#X connect 9 1 19 4;
#X connect 10 0 11 0;
#X connect 11 0 19 0;
#X connect 11 1 19 5;
#X connect 12 0 13 0;
#X connect 13 0 19 0;
#X connect 13 1 19 6;
#X connect 14 0 15 0;
#X connect 15 0 19 0;
#X connect 15 1 19 7;
#X connect 16 0 17 0;
#X connect 17 0 18 0;
#X connect 19 0 21 0;
#X connect 20 0 16 0;
#X connect 20 1 16 1;
#X connect 21 0 20 0;
#X connect 22 0 19 0;
#X connect 23 0 24 0;
#X connect 24 0 37 0;
#X connect 24 1 37 1;
#X connect 25 0 26 0;
#X connect 26 0 37 0;
#X connect 26 1 37 2;
#X connect 27 0 28 0;
#X connect 28 0 37 0;
#X connect 28 1 37 3;
#X connect 29 0 30 0;
#X connect 30 0 37 0;
#X connect 30 1 37 4;
#X connect 31 0 32 0;
#X connect 32 0 37 0;
#X connect 32 1 37 5;
#X connect 33 0 34 0;
#X connect 34 0 37 0;
#X connect 34 1 37 6;
#X connect 35 0 36 0;
#X connect 36 0 37 0;
#X connect 36 1 37 7;
#X connect 37 0 16 0;
#X restore -44 374 pd pack 0 0 0 0 0 0 0 0 0 0 0 0 0 0 0 0 0 0 0 0
0 0;
#X msg 271 183 label \$1;
#X obj 271 155 makefilename %d;
#X floatatom 271 131 5 0 0 0 - - -;
#X obj 271 207 s \$0-pattern;
#X obj 109 116 cnv 10 70 15 empty \$0-pattern 3.35544e+07 5 8 0 10
-1 -262144 0;
#X obj -184 509 s \$0-b;
#N canvas 276 201 1164 456 pack 0;
#X obj 71 123 inlet;
#X floatatom 172 262 10 0 0 0 - - -;
#X obj 172 294 outlet;
#X obj 146 51 inlet;
#X obj 146 81 t b f;
#X obj 191 51 inlet;
#X obj 191 81 t b f;
#X obj 232 51 inlet;
#X obj 232 81 t b f;
#X obj 324 49 inlet;
#X obj 324 82 t b f;
#X obj 367 50 inlet;
#X obj 367 83 t b f;
#X obj 410 50 inlet;
#X obj 410 83 t b f;
#X obj 453 51 inlet;
#X obj 453 84 t b f;
#X obj 29 132 inlet;
#X obj 41 164 t b f;
#X obj 171 196 expr $f1*pow(2 \, 23) + $f2*pow(2 \, 22) + $f3*pow(2
\, 21) +$f4*pow(2 \, 20) + $f5*pow(2 \, 19) + $f6*pow(2 \, 18) + $f7*pow(2
\, 17) + $f8*pow(2 \, 16)+$f9*pow(2 \, 23)*2;
#X connect 0 0 19 0;
#X connect 1 0 2 0;
#X connect 3 0 4 0;
#X connect 4 0 19 0;
#X connect 4 1 19 1;
#X connect 5 0 6 0;
#X connect 6 0 19 0;
#X connect 6 1 19 2;
#X connect 7 0 8 0;
#X connect 8 0 19 0;
#X connect 8 1 19 3;
#X connect 9 0 10 0;
#X connect 10 0 19 0;
#X connect 10 1 19 4;
#X connect 11 0 12 0;
#X connect 12 0 19 0;
#X connect 12 1 19 5;
#X connect 13 0 14 0;
#X connect 14 0 19 0;
#X connect 14 1 19 6;
#X connect 15 0 16 0;
#X connect 16 0 19 0;
#X connect 16 1 19 7;
#X connect 17 0 18 0;
#X connect 18 0 19 0;
#X connect 18 1 19 8;
#X connect 19 0 1 0;
#X restore -295 296 pd pack 0 0 0 0 0 0 0 0 0 0 0 0 0 0 0 0 0 0 0 0
0 0;
#X obj -184 454 expr $f1+$f2;
#X floatatom -184 482 5 0 0 0 - - -;
#X obj -176 409 t b a;
#X obj 169 137 tgl 15 0 empty empty empty 17 7 0 10 -262144 -1 -1 0
1;
#X obj 154 137 tgl 15 0 empty empty empty 17 7 0 10 -262144 -1 -1 0
1;
#X obj 139 137 tgl 15 0 empty empty empty 17 7 0 10 -262144 -1 -1 0
1;
#X obj 124 137 tgl 15 0 empty empty empty 17 7 0 10 -262144 -1 -1 0
1;
#X obj 109 137 tgl 15 0 empty empty empty 17 7 0 10 -262144 -1 -1 0
1;
#X obj 169 152 tgl 15 0 empty empty empty 17 7 0 10 -262144 -1 -1 0
1;
#X obj 154 152 tgl 15 0 empty empty empty 17 7 0 10 -262144 -1 -1 0
1;
#X obj 139 152 tgl 15 0 empty empty empty 17 7 0 10 -262144 -1 -1 0
1;
#X obj 124 152 tgl 15 0 empty empty empty 17 7 0 10 -262144 -1 -1 0
1;
#X obj 109 152 tgl 15 0 empty empty empty 17 7 0 10 -262144 -1 -1 0
1;
#X obj 169 167 tgl 15 0 empty empty empty 17 7 0 10 -262144 -1 -1 0
1;
#X obj 154 167 tgl 15 0 empty empty empty 17 7 0 10 -262144 -1 -1 0
1;
#X obj 139 167 tgl 15 0 empty empty empty 17 7 0 10 -262144 -1 -1 0
1;
#X obj 124 167 tgl 15 0 empty empty empty 17 7 0 10 -262144 -1 -1 0
1;
#X obj 109 167 tgl 15 0 empty empty empty 17 7 0 10 -262144 -1 -1 0
1;
#X obj 169 182 tgl 15 0 empty empty empty 17 7 0 10 -262144 -1 -1 0
1;
#X obj 154 182 tgl 15 0 empty empty empty 17 7 0 10 -262144 -1 -1 0
1;
#X obj 139 182 tgl 15 0 empty empty empty 17 7 0 10 -262144 -1 -1 0
1;
#X obj 124 182 tgl 15 0 empty empty empty 17 7 0 10 -262144 -1 -1 0
1;
#X obj 109 182 tgl 15 0 empty empty empty 17 7 0 10 -262144 -1 -1 0
1;
#X obj 169 197 tgl 15 0 empty empty empty 17 7 0 10 -262144 -1 -1 0
1;
#X obj 154 197 tgl 15 0 empty empty empty 17 7 0 10 -262144 -1 -1 0
1;
#X obj 139 197 tgl 15 0 empty empty empty 17 7 0 10 -262144 -1 -1 0
1;
#X obj 124 197 tgl 15 0 empty empty empty 17 7 0 10 -262144 -1 -1 0
1;
#X obj 109 197 tgl 15 0 empty empty empty 17 7 0 10 -262144 -1 -1 0
1;
#X obj -131 510 outlet;
#X connect 0 0 12 0;
#X connect 1 0 5 0;
#X connect 2 0 0 0;
#X connect 3 0 6 0;
#X connect 4 0 3 0;
#X connect 5 0 4 0;
#X connect 9 0 10 0;
#X connect 10 0 11 0;
#X connect 11 0 8 0;
#X connect 11 0 38 0;
#X connect 12 0 10 0;
#X connect 12 1 10 1;
#X connect 13 0 2 11;
#X connect 14 0 2 12;
#X connect 15 0 2 13;
#X connect 16 0 2 14;
#X connect 17 0 2 15;
#X connect 18 0 2 6;
#X connect 19 0 2 7;
#X connect 20 0 2 8;
#X connect 21 0 2 9;
#X connect 22 0 2 10;
#X connect 23 0 2 1;
#X connect 24 0 2 2;
#X connect 25 0 2 3;
#X connect 26 0 2 4;
#X connect 27 0 2 5;
#X connect 28 0 9 5;
#X connect 29 0 9 6;
#X connect 30 0 9 7;
#X connect 31 0 9 8;
#X connect 32 0 2 0;
#X connect 33 0 9 0;
#X connect 34 0 9 1;
#X connect 35 0 9 2;
#X connect 36 0 9 3;
#X connect 37 0 9 4;
#X coords 0 -1 1 1 90 120 1 100 100;
