#N canvas 266 22 918 746 10;
#X obj 182 102 cnv 15 306 20 empty empty empty 20 12 0 14 -128992 -66577
0;
#X obj 102 116 cnv 15 386 20 empty empty empty 20 12 0 14 -128992 -66577
0;
#X floatatom 481 -69 5 0 65535 0 - - -;
#X obj 481 -90 inlet num;
#X obj 70 -119 outlet count;
#X floatatom 151 243 5 0 1023 0 - - -;
#X obj 43 -169 inlet count;
#X obj 43 -144 t f f;
#X floatatom 43 -94 5 0 0 0 - - -;
#X obj 104 119 o-bit;
#X obj 151 270 s \$0-b;
#X obj 601 39 r \$0-b;
#X obj 43 -27 sel 0 1 2 3 4 5 6 7 8 9 10 11 12 13 14 15;
#N canvas 236 86 791 614 ooooooooooooooooooooooooooooooooooooooooooooooo
0;
#X obj 234 78 & 1;
#X obj 221 106 & 2;
#X obj 208 133 & 4;
#X obj 195 158 & 8;
#X obj 182 185 & 16;
#X obj 169 79 & 32;
#X obj 156 104 & 64;
#X obj 143 130 & 128;
#X obj 130 155 & 256;
#X obj 117 181 & 512;
#X obj 39 54 t f f f f f f f f f f f f f f f f;
#X obj 38 30 inlet;
#X obj 104 87 & 1024;
#X obj 91 114 & 2048;
#X obj 78 141 & 4096;
#X obj 65 176 & 8192;
#X obj 52 204 & 16384;
#X obj 39 230 & 32768;
#X obj 39 265 outlet;
#X obj 52 294 outlet;
#X obj 65 318 outlet;
#X obj 78 347 outlet;
#X obj 91 379 outlet;
#X obj 104 408 outlet;
#X obj 117 216 outlet;
#X obj 130 245 outlet;
#X obj 143 269 outlet;
#X obj 157 298 outlet;
#X obj 169 330 outlet;
#X obj 182 359 outlet;
#X obj 195 226 outlet;
#X obj 208 255 outlet;
#X obj 221 287 outlet;
#X obj 234 316 outlet;
#X obj 172 -54 inlet;
#X obj 172 -30 route 0 1 2 3 4 5 6 7 8 9 10 11 12 13 14 15;
#X connect 0 0 33 0;
#X connect 1 0 32 0;
#X connect 2 0 31 0;
#X connect 3 0 30 0;
#X connect 4 0 29 0;
#X connect 5 0 28 0;
#X connect 6 0 27 0;
#X connect 7 0 26 0;
#X connect 8 0 25 0;
#X connect 9 0 24 0;
#X connect 10 0 17 0;
#X connect 10 1 16 0;
#X connect 10 2 15 0;
#X connect 10 3 14 0;
#X connect 10 4 13 0;
#X connect 10 5 12 0;
#X connect 10 6 9 0;
#X connect 10 7 8 0;
#X connect 10 8 7 0;
#X connect 10 9 6 0;
#X connect 10 10 5 0;
#X connect 10 11 4 0;
#X connect 10 12 3 0;
#X connect 10 13 2 0;
#X connect 10 14 1 0;
#X connect 10 15 0 0;
#X connect 11 0 10 0;
#X connect 12 0 23 0;
#X connect 13 0 22 0;
#X connect 14 0 21 0;
#X connect 15 0 20 0;
#X connect 16 0 19 0;
#X connect 17 0 18 0;
#X connect 34 0 35 0;
#X connect 35 0 18 0;
#X connect 35 1 19 0;
#X connect 35 2 20 0;
#X connect 35 3 21 0;
#X connect 35 4 22 0;
#X connect 35 5 23 0;
#X connect 35 6 24 0;
#X connect 35 7 25 0;
#X connect 35 8 26 0;
#X connect 35 9 27 0;
#X connect 35 10 28 0;
#X connect 35 11 29 0;
#X connect 35 12 30 0;
#X connect 35 13 31 0;
#X connect 35 14 32 0;
#X connect 35 15 33 0;
#X restore 112 49 pd ooooooooooooooooooooooooooooooooooooooooooooooo
;
#N canvas 276 234 1164 456 pack 0;
#X obj -114 49 inlet;
#X obj 301 19 inlet;
#X obj 339 19 inlet;
#X obj 339 49 t b f;
#X obj 384 19 inlet;
#X obj 384 49 t b f;
#X obj 425 19 inlet;
#X obj 425 49 t b f;
#X obj 517 17 inlet;
#X obj 517 50 t b f;
#X obj 560 18 inlet;
#X obj 560 51 t b f;
#X obj 603 18 inlet;
#X obj 603 51 t b f;
#X obj 646 19 inlet;
#X obj 646 52 t b f;
#X obj 118 302 expr $f1+$f2;
#X floatatom 118 330 5 0 0 0 - - -;
#X obj 118 362 outlet;
#X obj 299 175 expr $f1*pow(2 \, 7) + $f2*pow(2 \, 6) + $f3*pow(2 \,
5) +$f4*pow(2 \, 4) + $f5*pow(2 \, 3) + $f6*pow(2 \, 2) + $f7*2 + $f8
;
#X obj 299 243 t b f;
#X floatatom 299 217 5 0 0 0 - - -;
#X floatatom 301 48 5 0 0 0 - - -;
#X obj -72 48 inlet;
#X obj -72 78 t b f;
#X obj -27 48 inlet;
#X obj -27 78 t b f;
#X obj 14 48 inlet;
#X obj 14 78 t b f;
#X obj 106 46 inlet;
#X obj 106 79 t b f;
#X obj 149 47 inlet;
#X obj 149 80 t b f;
#X obj 192 47 inlet;
#X obj 192 80 t b f;
#X obj 235 48 inlet;
#X obj 235 81 t b f;
#X obj -114 120 expr $f1*pow(2 \, 15) + $f2*pow(2 \, 14) + $f3*pow(2
\, 13) +$f4*pow(2 \, 12) + $f5*pow(2 \, 11) + $f6*pow(2 \, 10) + $f7*pow(2
\, 9) + $f8*pow(2 \, 8);
#X connect 0 0 37 0;
#X connect 1 0 22 0;
#X connect 2 0 3 0;
#X connect 3 0 19 0;
#X connect 3 1 19 1;
#X connect 4 0 5 0;
#X connect 5 0 19 0;
#X connect 5 1 19 2;
#X connect 6 0 7 0;
#X connect 7 0 19 0;
#X connect 7 1 19 3;
#X connect 8 0 9 0;
#X connect 9 0 19 0;
#X connect 9 1 19 4;
#X connect 10 0 11 0;
#X connect 11 0 19 0;
#X connect 11 1 19 5;
#X connect 12 0 13 0;
#X connect 13 0 19 0;
#X connect 13 1 19 6;
#X connect 14 0 15 0;
#X connect 15 0 19 0;
#X connect 15 1 19 7;
#X connect 16 0 17 0;
#X connect 17 0 18 0;
#X connect 19 0 21 0;
#X connect 20 0 16 0;
#X connect 20 1 16 1;
#X connect 21 0 20 0;
#X connect 22 0 19 0;
#X connect 23 0 24 0;
#X connect 24 0 37 0;
#X connect 24 1 37 1;
#X connect 25 0 26 0;
#X connect 26 0 37 0;
#X connect 26 1 37 2;
#X connect 27 0 28 0;
#X connect 28 0 37 0;
#X connect 28 1 37 3;
#X connect 29 0 30 0;
#X connect 30 0 37 0;
#X connect 30 1 37 4;
#X connect 31 0 32 0;
#X connect 32 0 37 0;
#X connect 32 1 37 5;
#X connect 33 0 34 0;
#X connect 34 0 37 0;
#X connect 34 1 37 6;
#X connect 35 0 36 0;
#X connect 36 0 37 0;
#X connect 36 1 37 7;
#X connect 37 0 16 0;
#X restore 151 212 pd pack 0 0 0 0 0 0 0 0 0 0 0 0 0 0 0 0 0 0 0 0
0 0;
#X floatatom 412 118 5 0 65535 0 - - -;
#X obj 196 327 s mono_\$1;
#X obj 196 273 t f f;
#X obj 262 304 outlet;
#X obj 218 102 nbx 2 15 -1e+37 1e+37 0 0 empty empty MOD -25 7 0 12
-1 -258113 -1 13 256;
#X obj 250 -112 loadbang;
#X msg 250 -57 16;
#X obj 217 119 o-bit;
#X obj 234 119 o-bit;
#X obj 121 119 o-bit;
#X obj 138 119 o-bit;
#X obj 155 119 o-bit;
#X obj 183 119 o-bit;
#X obj 200 119 o-bit;
#X obj 298 119 o-bit;
#X obj 315 119 o-bit;
#X obj 264 119 o-bit;
#X obj 281 119 o-bit;
#X obj 378 119 o-bit;
#X obj 395 119 o-bit;
#X obj 344 119 o-bit;
#X obj 361 119 o-bit;
#X obj 345 104 bng 12 250 50 0 empty empty empty 17 7 0 10 -262144
-1 -262144;
#X msg 411 9 0;
#X msg 601 120 label \$1;
#X obj 601 92 makefilename %d;
#X floatatom 601 64 5 0 0 0 - - -;
#X obj 601 144 s \$0-pattern;
#X obj 447 119 cnv 15 40 15 empty \$0-pattern 37522 5 8 0 10 -1 -262144
0;
#X obj 567 -22 key;
#X obj 567 6 sel 27;
#X obj 362 104 bng 12 250 50 0 empty empty empty 17 7 0 10 -1 -262144
-262144;
#X msg 362 13 65535;
#X obj 43 -61 expr ($f1%$f2);
#X obj 438 -46 r pattern_\$1;
#X floatatom 438 -21 5 0 0 0 - - -;
#X obj 558 142 v p_\$1;
#X obj 278 102 nbx 2 15 -1e+37 1e+37 0 0 empty empty NUM -25 7 0 12
-1 -258113 -1 5 256;
#X obj 577 373 until;
#N canvas 146 447 450 300 count 0;
#X obj 144 132 f;
#X obj 173 132 + 1;
#X msg 180 109 0;
#X obj 180 88 loadbang;
#X obj 144 28 inlet;
#X obj 144 254 outlet;
#X obj 230 27 inlet;
#X obj 230 53 t b;
#X connect 0 0 1 0;
#X connect 0 0 5 0;
#X connect 1 0 0 1;
#X connect 2 0 0 1;
#X connect 3 0 2 0;
#X connect 4 0 0 0;
#X connect 6 0 7 0;
#X connect 7 0 2 0;
#X restore 577 395 pd count;
#N canvas 0 22 507 414 euclicore--i--k--n--p 0;
#X obj 59 58 inlet;
#X obj 188 113 inlet;
#X obj 116 92 inlet;
#X obj 302 170 inlet;
#X text 155 90 specify desired number of hits per bar;
#X text 230 113 specify length of bar;
#X text 340 169 rhythm offset/rotation;
#X text 109 56 <-- send an integer to find out if there should be a
hit on that beat;
#X obj 59 280 % \$3;
#X text 121 344 <-- bang out on each hit. (Silent on rest.);
#X obj 59 247 * \$1;
#X obj 59 313 < \$1;
#X obj 59 121 i;
#X obj 59 342 outlet;
#X obj 59 185 + 0;
#X obj 188 141 t f f;
#X obj 59 215 - \$2;
#X obj 188 168 i;
#X obj 215 263 i;
#X connect 0 0 12 0;
#X connect 1 0 15 0;
#X connect 2 0 10 1;
#X connect 2 0 11 1;
#X connect 3 0 16 1;
#X connect 8 0 11 0;
#X connect 10 0 8 0;
#X connect 11 0 13 0;
#X connect 12 0 14 0;
#X connect 14 0 16 0;
#X connect 15 0 17 0;
#X connect 15 1 18 0;
#X connect 16 0 10 0;
#X connect 17 0 14 1;
#X connect 18 0 8 1;
#X restore 577 450 pd euclicore--i--k--n--p;
#X obj 577 419 t f f;
#X floatatom 562 239 5 0 0 0 - - -;
#X obj 562 263 v \$0-n;
#X obj 671 406 v \$0-n;
#X obj 624 367 v \$0-k;
#X obj 577 341 v \$0-n;
#X obj 535 217 t b f;
#X obj 507 260 s \$0-go;
#X obj 577 288 r \$0-go;
#X floatatom 684 241 5 0 0 0 - - -;
#X obj 657 219 t b f;
#X obj 629 262 s \$0-go;
#X obj 684 265 v \$0-k;
#X obj 577 310 t b b b b;
#X obj 250 -86 t b b;
#X obj 577 484 pack f f;
#X msg 577 507 \$2 \$1;
#X obj 328 -82 inlet;
#X obj 328 -58 unpack f f;
#X msg 281 -60 0;
#X obj 535 194 speedlim 50;
#X obj 657 195 speedlim 50;
#X connect 2 0 15 0;
#X connect 3 0 2 0;
#X connect 5 0 10 0;
#X connect 6 0 7 0;
#X connect 7 0 8 0;
#X connect 7 1 4 0;
#X connect 8 0 48 0;
#X connect 9 0 17 0;
#X connect 9 1 14 0;
#X connect 11 0 41 0;
#X connect 12 0 9 0;
#X connect 12 1 24 0;
#X connect 12 2 25 0;
#X connect 12 3 26 0;
#X connect 12 4 27 0;
#X connect 12 5 28 0;
#X connect 12 6 22 0;
#X connect 12 7 23 0;
#X connect 12 8 31 0;
#X connect 12 9 32 0;
#X connect 12 10 29 0;
#X connect 12 11 30 0;
#X connect 12 12 35 0;
#X connect 12 13 36 0;
#X connect 12 14 33 0;
#X connect 12 15 34 0;
#X connect 13 0 9 1;
#X connect 13 1 24 1;
#X connect 13 2 25 1;
#X connect 13 3 26 1;
#X connect 13 4 27 1;
#X connect 13 5 28 1;
#X connect 13 6 22 1;
#X connect 13 7 23 1;
#X connect 13 8 31 1;
#X connect 13 9 32 1;
#X connect 13 10 29 1;
#X connect 13 11 30 1;
#X connect 13 12 35 1;
#X connect 13 13 36 1;
#X connect 13 14 33 1;
#X connect 13 15 34 1;
#X connect 14 0 5 0;
#X connect 15 0 13 0;
#X connect 17 0 16 0;
#X connect 17 1 18 0;
#X connect 19 0 48 1;
#X connect 19 0 76 0;
#X connect 20 0 70 0;
#X connect 21 0 19 0;
#X connect 22 0 17 0;
#X connect 22 1 14 6;
#X connect 23 0 17 0;
#X connect 23 1 14 7;
#X connect 24 0 17 0;
#X connect 24 1 14 1;
#X connect 25 0 17 0;
#X connect 25 1 14 2;
#X connect 26 0 17 0;
#X connect 26 1 14 3;
#X connect 27 0 17 0;
#X connect 27 1 14 4;
#X connect 28 0 17 0;
#X connect 28 1 14 5;
#X connect 29 0 17 0;
#X connect 29 1 14 10;
#X connect 30 0 17 0;
#X connect 30 1 14 11;
#X connect 31 0 17 0;
#X connect 31 1 14 8;
#X connect 32 0 17 0;
#X connect 32 1 14 9;
#X connect 33 0 17 0;
#X connect 33 1 14 14;
#X connect 34 0 17 0;
#X connect 34 1 14 15;
#X connect 35 0 17 0;
#X connect 35 1 14 12;
#X connect 36 0 17 0;
#X connect 36 1 14 13;
#X connect 37 0 38 0;
#X connect 38 0 15 0;
#X connect 39 0 42 0;
#X connect 40 0 39 0;
#X connect 41 0 40 0;
#X connect 41 0 51 0;
#X connect 44 0 45 0;
#X connect 45 0 37 0;
#X connect 46 0 47 0;
#X connect 47 0 15 0;
#X connect 48 0 12 0;
#X connect 49 0 50 0;
#X connect 50 0 15 0;
#X connect 52 0 77 0;
#X connect 53 0 54 0;
#X connect 54 0 56 0;
#X connect 55 0 71 0;
#X connect 56 0 55 0;
#X connect 56 1 71 1;
#X connect 57 0 58 0;
#X connect 59 0 55 2;
#X connect 60 0 55 1;
#X connect 61 0 53 0;
#X connect 62 0 63 0;
#X connect 62 1 57 0;
#X connect 64 0 69 0;
#X connect 65 0 68 0;
#X connect 66 0 67 0;
#X connect 66 1 65 0;
#X connect 69 0 61 0;
#X connect 69 1 54 1;
#X connect 69 2 60 0;
#X connect 69 3 59 0;
#X connect 70 0 21 0;
#X connect 70 1 75 0;
#X connect 71 0 72 0;
#X connect 72 0 13 1;
#X connect 73 0 74 0;
#X connect 74 0 19 0;
#X connect 74 1 52 0;
#X connect 75 0 52 0;
#X connect 76 0 62 0;
#X connect 77 0 66 0;
#X coords 0 -1 1 1 390 38 1 100 100;
