#N canvas 0 22 1111 486 10;
#X floatatom 102 43 5 0 0 0 - - -;
#X obj 102 67 t f f f f f f f f f;
#X obj 125 128 nbx 2 20 1 8 0 0 empty empty 1 0 -8 0 15 -1 -258113
-1 1 256;
#X obj 189 128 nbx 2 20 1 8 0 0 empty empty 2 0 -8 0 15 -1 -258113
-1 1 256;
#X obj 254 129 nbx 2 20 1 8 0 0 empty empty 3 0 -8 0 15 -1 -258113
-1 1 256;
#X obj 315 129 nbx 2 20 1 8 0 0 empty empty 4 0 -8 0 15 -1 -258113
-1 1 256;
#X obj 418 127 nbx 2 20 1 8 0 0 empty empty 5 0 -8 0 15 -1 -258113
-1 1 256;
#X obj 524 128 nbx 2 20 1 8 0 0 empty empty 6 0 -8 0 15 -1 -258113
-1 1 256;
#N canvas 0 22 450 300 a1 0;
#X obj 129 54 sel 0;
#X obj 129 33 % 1;
#X obj 53 157 spigot;
#X obj 53 181 s patterm_1;
#X obj 156 77 t b;
#X obj 129 0 inlet;
#X obj 169 0 inlet;
#X floatatom 120 104 6 0 0 0 - - -;
#X floatatom 120 125 6 0 0 0 - - -;
#X obj 102 104 tgl 15 0 empty empty empty 17 7 0 10 -262144 -1 -1 0
1;
#X connect 0 0 7 0;
#X connect 0 1 4 0;
#X connect 1 0 0 0;
#X connect 2 0 3 0;
#X connect 4 0 8 0;
#X connect 5 0 1 0;
#X connect 6 0 1 1;
#X connect 7 0 2 0;
#X connect 8 0 2 0;
#X connect 9 0 2 1;
#X coords 0 -1 1 1 60 45 2 100 100;
#X restore 105 152 pd a1;
#N canvas 0 22 450 300 a1 0;
#X obj 129 54 sel 0;
#X obj 129 33 % 1;
#X obj 53 157 spigot;
#X obj 156 77 t b;
#X obj 129 0 inlet;
#X obj 169 0 inlet;
#X floatatom 120 104 6 0 0 0 - - -;
#X floatatom 120 125 6 0 0 0 - - -;
#X obj 102 104 tgl 15 0 empty empty empty 17 7 0 10 -262144 -1 -1 0
1;
#X obj 53 181 s patterm_2;
#X connect 0 0 6 0;
#X connect 0 1 3 0;
#X connect 1 0 0 0;
#X connect 2 0 9 0;
#X connect 3 0 7 0;
#X connect 4 0 1 0;
#X connect 5 0 1 1;
#X connect 6 0 2 0;
#X connect 7 0 2 0;
#X connect 8 0 2 1;
#X coords 0 -1 1 1 60 45 2 100 100;
#X restore 168 152 pd a1;
#N canvas 0 22 450 300 a1 0;
#X obj 129 54 sel 0;
#X obj 129 33 % 1;
#X obj 53 157 spigot;
#X obj 156 77 t b;
#X obj 129 0 inlet;
#X obj 169 0 inlet;
#X floatatom 120 104 6 0 0 0 - - -;
#X floatatom 120 125 6 0 0 0 - - -;
#X obj 102 104 tgl 15 0 empty empty empty 17 7 0 10 -262144 -1 -1 0
1;
#X obj 53 181 s patterm_3;
#X connect 0 0 6 0;
#X connect 0 1 3 0;
#X connect 1 0 0 0;
#X connect 2 0 9 0;
#X connect 3 0 7 0;
#X connect 4 0 1 0;
#X connect 5 0 1 1;
#X connect 6 0 2 0;
#X connect 7 0 2 0;
#X connect 8 0 2 1;
#X coords 0 -1 1 1 60 45 2 100 100;
#X restore 231 152 pd a1;
#N canvas 0 22 450 300 a1 0;
#X obj 129 54 sel 0;
#X obj 129 33 % 1;
#X obj 53 157 spigot;
#X obj 156 77 t b;
#X obj 129 0 inlet;
#X obj 169 0 inlet;
#X floatatom 120 104 6 0 0 0 - - -;
#X floatatom 120 125 6 0 0 0 - - -;
#X obj 102 104 tgl 15 0 empty empty empty 17 7 0 10 -262144 -1 -1 0
1;
#X obj 53 181 s patterm_4;
#X connect 0 0 6 0;
#X connect 0 1 3 0;
#X connect 1 0 0 0;
#X connect 2 0 9 0;
#X connect 3 0 7 0;
#X connect 4 0 1 0;
#X connect 5 0 1 1;
#X connect 6 0 2 0;
#X connect 7 0 2 0;
#X connect 8 0 2 1;
#X coords 0 -1 1 1 60 45 2 100 100;
#X restore 294 152 pd a1;
#N canvas 287 242 595 407 a1 0;
#X obj 129 54 sel 0;
#X obj 129 33 % 1;
#X obj 77 232 spigot;
#X obj 156 77 t b;
#X obj 129 0 inlet;
#X obj 169 0 inlet;
#X floatatom 119 104 6 0 0 0 - - -;
#X obj 102 104 tgl 15 0 empty empty empty 17 7 0 10 -262144 -1 -1 0
1;
#X floatatom 160 104 6 0 0 0 - - -;
#X obj 83 181 pack f f;
#X floatatom 119 125 6 0 0 0 - - -;
#X floatatom 160 125 6 0 0 0 - - -;
#X obj 165 184 pack f f;
#X obj 76 256 s patterm_5;
#X connect 0 0 9 0;
#X connect 0 1 3 0;
#X connect 1 0 0 0;
#X connect 2 0 13 0;
#X connect 3 0 12 0;
#X connect 4 0 1 0;
#X connect 5 0 1 1;
#X connect 6 0 9 0;
#X connect 7 0 2 1;
#X connect 8 0 9 1;
#X connect 9 0 2 0;
#X connect 10 0 12 0;
#X connect 11 0 12 1;
#X connect 12 0 2 0;
#X coords 0 -1 1 1 100 45 2 100 100;
#X restore 358 152 pd a1;
#N canvas 287 242 595 407 a1 0;
#X obj 129 54 sel 0;
#X obj 129 33 % 1;
#X obj 77 232 spigot;
#X obj 156 77 t b;
#X obj 129 0 inlet;
#X obj 169 0 inlet;
#X floatatom 119 104 6 0 0 0 - - -;
#X obj 102 104 tgl 15 0 empty empty empty 17 7 0 10 -262144 -1 -1 0
1;
#X floatatom 160 104 6 0 0 0 - - -;
#X obj 83 181 pack f f;
#X floatatom 119 125 6 0 0 0 - - -;
#X floatatom 160 125 6 0 0 0 - - -;
#X obj 165 184 pack f f;
#X obj 76 256 s patterm_6;
#X connect 0 0 9 0;
#X connect 0 1 3 0;
#X connect 1 0 0 0;
#X connect 2 0 13 0;
#X connect 3 0 12 0;
#X connect 4 0 1 0;
#X connect 5 0 1 1;
#X connect 6 0 9 0;
#X connect 7 0 2 1;
#X connect 8 0 9 1;
#X connect 9 0 2 0;
#X connect 10 0 12 0;
#X connect 11 0 12 1;
#X connect 12 0 2 0;
#X coords 0 -1 1 1 100 45 2 100 100;
#X restore 463 152 pd a1;
#X obj 102 17 r count_0;
#X connect 0 0 1 0;
#X connect 1 0 8 0;
#X connect 1 1 9 0;
#X connect 1 2 10 0;
#X connect 1 3 11 0;
#X connect 1 4 12 0;
#X connect 1 5 13 0;
#X connect 2 0 8 1;
#X connect 3 0 9 1;
#X connect 4 0 10 1;
#X connect 5 0 11 1;
#X connect 6 0 12 1;
#X connect 7 0 13 1;
#X connect 14 0 0 0;
#X coords 0 -1 1 1 470 100 1 100 100;
