#N canvas 695 254 305 512 10;
#X obj 40 113 *~;
#X obj 40 191 osc~;
#X obj 40 216 clip~ -0.8 0.8;
#X obj 40 252 *~;
#X obj 86 252 *~ 10000;
#X obj 86 276 clip~ -0.9 0.9;
#X obj 86 299 *~;
#X obj 86 322 *~;
#X obj 86 348 clip~ 0 1;
#X obj 86 373 *~ 0.4;
#X obj 101 151 *~;
#X obj 116 63 noise~;
#X obj 116 88 bp~ 3300 0.5;
#X obj 116 112 lop~ 7000;
#X obj 155 346 *~;
#X obj 155 371 *~ 0.1;
#X obj 86 425 bp~ 8000 1;
#X obj 40 52 sel 1;
#X obj 86 456 outlet~;
#X obj 40 19 inlet;
#X obj 40 167 +~ 120;
#X obj 86 399 *~ 0.3;
#X obj 40 279 *~ 0.8;
#X obj 40 140 *~ 12;
#X obj 40 81 ead~ 1 300;
#X connect 0 0 3 1;
#X connect 0 0 6 1;
#X connect 0 0 23 0;
#X connect 1 0 2 0;
#X connect 2 0 3 0;
#X connect 2 0 4 0;
#X connect 3 0 22 0;
#X connect 4 0 5 0;
#X connect 5 0 6 0;
#X connect 6 0 7 0;
#X connect 7 0 8 0;
#X connect 8 0 9 0;
#X connect 9 0 21 0;
#X connect 10 0 7 1;
#X connect 11 0 12 0;
#X connect 12 0 13 0;
#X connect 12 0 14 0;
#X connect 13 0 10 1;
#X connect 14 0 15 0;
#X connect 15 0 21 0;
#X connect 16 0 18 0;
#X connect 17 0 24 0;
#X connect 19 0 17 0;
#X connect 20 0 1 0;
#X connect 21 0 16 0;
#X connect 22 0 21 0;
#X connect 23 0 20 0;
#X connect 24 0 0 0;
#X connect 24 0 0 1;
#X connect 24 0 10 0;
#X connect 24 0 14 1;
