#N canvas 58 22 1475 709 10;
#X obj 101 101 cnv 15 388 56 empty \$0-otstereo ot_mono_5 3 8 0 14
-262144 -66577 0;
#X obj 156 7 outlet count;
#X obj 129 -43 inlet count;
#X obj 129 -18 t f f;
#X floatatom 118 15 5 0 0 0 - - -;
#X obj 118 73 t f f;
#X obj 483 59 unpack f f;
#X obj 483 33 inlet;
#X obj 133 350 pack f f;
#X obj 160 425 outlet;
#X obj 133 377 t a a;
#X obj 133 401 s stereo_\$1;
#X obj 219 103 nbx 2 15 -1e+37 1e+37 0 0 empty empty MOD -25 7 0 12
-1 -258113 -1 16 256;
#X obj 249 -79 loadbang;
#X msg 249 -56 16;
#X obj 118 43 % 16;
#X obj 253 106 bng 12 250 50 0 empty empty empty 17 7 0 10 -262144
-1 -262144;
#X msg 390 9 0;
#X obj 270 106 bng 12 250 50 0 empty empty empty 17 7 0 10 -1 -262144
-262144;
#X msg 352 60 65535;
#X obj 448 -15 r pattern_\$1;
#X obj 312 -44 key;
#X obj 312 -16 sel 27;
#X obj 12 171 t b f;
#X obj 9 228 pack f f;
#X obj 68 156 bng 15 250 50 0 empty empty empty 17 7 0 10 -262144 -1
-1;
#X obj 10 202 f \$0;
#X obj 15 125 init \$1;
#X msg 11 272 \; \$1-otstereo label ot_mono_\$2;
#X floatatom 537 425 5 0 1023 0 - - -;
#X floatatom 264 -139 5 0 0 0 - - -;
#X obj 264 -113 sel 0 1 2 3 4 5 6 7 8 9 10 11 12 13 14 15;
#N canvas 236 86 492 635 ooooooooooooooooooooooooooooooooooooooooooooooo
0;
#X obj 234 78 & 1;
#X obj 221 106 & 2;
#X obj 208 133 & 4;
#X obj 195 158 & 8;
#X obj 182 185 & 16;
#X obj 169 79 & 32;
#X obj 156 104 & 64;
#X obj 143 130 & 128;
#X obj 130 155 & 256;
#X obj 117 181 & 512;
#X obj 39 54 t f f f f f f f f f f f f f f f f;
#X obj 38 30 inlet;
#X obj 104 87 & 1024;
#X obj 91 114 & 2048;
#X obj 78 141 & 4096;
#X obj 65 176 & 8192;
#X obj 52 204 & 16384;
#X obj 39 230 & 32768;
#X obj 39 265 outlet;
#X obj 52 294 outlet;
#X obj 65 318 outlet;
#X obj 78 347 outlet;
#X obj 91 379 outlet;
#X obj 104 408 outlet;
#X obj 117 216 outlet;
#X obj 130 245 outlet;
#X obj 143 269 outlet;
#X obj 157 298 outlet;
#X obj 169 330 outlet;
#X obj 182 359 outlet;
#X obj 195 226 outlet;
#X obj 208 255 outlet;
#X obj 221 287 outlet;
#X obj 234 316 outlet;
#X connect 0 0 33 0;
#X connect 1 0 32 0;
#X connect 2 0 31 0;
#X connect 3 0 30 0;
#X connect 4 0 29 0;
#X connect 5 0 28 0;
#X connect 6 0 27 0;
#X connect 7 0 26 0;
#X connect 8 0 25 0;
#X connect 9 0 24 0;
#X connect 10 0 17 0;
#X connect 10 1 16 0;
#X connect 10 2 15 0;
#X connect 10 3 14 0;
#X connect 10 4 13 0;
#X connect 10 5 12 0;
#X connect 10 6 9 0;
#X connect 10 7 8 0;
#X connect 10 8 7 0;
#X connect 10 9 6 0;
#X connect 10 10 5 0;
#X connect 10 11 4 0;
#X connect 10 12 3 0;
#X connect 10 13 2 0;
#X connect 10 14 1 0;
#X connect 10 15 0 0;
#X connect 11 0 10 0;
#X connect 12 0 23 0;
#X connect 13 0 22 0;
#X connect 14 0 21 0;
#X connect 15 0 20 0;
#X connect 16 0 19 0;
#X connect 17 0 18 0;
#X restore 498 231 pd ooooooooooooooooooooooooooooooooooooooooooooooo
;
#N canvas 276 234 1164 456 pack 0;
#X obj -114 49 inlet;
#X obj 301 19 inlet;
#X obj 339 19 inlet;
#X obj 339 49 t b f;
#X obj 384 19 inlet;
#X obj 384 49 t b f;
#X obj 425 19 inlet;
#X obj 425 49 t b f;
#X obj 517 17 inlet;
#X obj 517 50 t b f;
#X obj 560 18 inlet;
#X obj 560 51 t b f;
#X obj 603 18 inlet;
#X obj 603 51 t b f;
#X obj 646 19 inlet;
#X obj 646 52 t b f;
#X obj 118 302 expr $f1+$f2;
#X floatatom 118 330 5 0 0 0 - - -;
#X obj 118 362 outlet;
#X obj 299 175 expr $f1*pow(2 \, 7) + $f2*pow(2 \, 6) + $f3*pow(2 \,
5) +$f4*pow(2 \, 4) + $f5*pow(2 \, 3) + $f6*pow(2 \, 2) + $f7*2 + $f8
;
#X obj 299 243 t b f;
#X floatatom 299 217 5 0 0 0 - - -;
#X floatatom 301 48 5 0 0 0 - - -;
#X obj -72 48 inlet;
#X obj -72 78 t b f;
#X obj -27 48 inlet;
#X obj -27 78 t b f;
#X obj 14 48 inlet;
#X obj 14 78 t b f;
#X obj 106 46 inlet;
#X obj 106 79 t b f;
#X obj 149 47 inlet;
#X obj 149 80 t b f;
#X obj 192 47 inlet;
#X obj 192 80 t b f;
#X obj 235 48 inlet;
#X obj 235 81 t b f;
#X obj -114 120 expr $f1*pow(2 \, 15) + $f2*pow(2 \, 14) + $f3*pow(2
\, 13) +$f4*pow(2 \, 12) + $f5*pow(2 \, 11) + $f6*pow(2 \, 10) + $f7*pow(2
\, 9) + $f8*pow(2 \, 8);
#X connect 0 0 37 0;
#X connect 1 0 22 0;
#X connect 2 0 3 0;
#X connect 3 0 19 0;
#X connect 3 1 19 1;
#X connect 4 0 5 0;
#X connect 5 0 19 0;
#X connect 5 1 19 2;
#X connect 6 0 7 0;
#X connect 7 0 19 0;
#X connect 7 1 19 3;
#X connect 8 0 9 0;
#X connect 9 0 19 0;
#X connect 9 1 19 4;
#X connect 10 0 11 0;
#X connect 11 0 19 0;
#X connect 11 1 19 5;
#X connect 12 0 13 0;
#X connect 13 0 19 0;
#X connect 13 1 19 6;
#X connect 14 0 15 0;
#X connect 15 0 19 0;
#X connect 15 1 19 7;
#X connect 16 0 17 0;
#X connect 17 0 18 0;
#X connect 19 0 21 0;
#X connect 20 0 16 0;
#X connect 20 1 16 1;
#X connect 21 0 20 0;
#X connect 22 0 19 0;
#X connect 23 0 24 0;
#X connect 24 0 37 0;
#X connect 24 1 37 1;
#X connect 25 0 26 0;
#X connect 26 0 37 0;
#X connect 26 1 37 2;
#X connect 27 0 28 0;
#X connect 28 0 37 0;
#X connect 28 1 37 3;
#X connect 29 0 30 0;
#X connect 30 0 37 0;
#X connect 30 1 37 4;
#X connect 31 0 32 0;
#X connect 32 0 37 0;
#X connect 32 1 37 5;
#X connect 33 0 34 0;
#X connect 34 0 37 0;
#X connect 34 1 37 6;
#X connect 35 0 36 0;
#X connect 36 0 37 0;
#X connect 36 1 37 7;
#X connect 37 0 16 0;
#X restore 535 394 pd pack 0 0 0 0 0 0 0 0 0 0 0 0 0 0 0 0 0 0 0 0
0 0;
#X floatatom 413 121 5 0 65535 0 - - -;
#X msg 537 474 label \$1;
#X obj 537 446 makefilename %d;
#X obj 447 122 cnv 15 40 15 empty \$0-up 840 5 8 0 10 -1 -262144 0
;
#X obj 537 498 s \$0-up;
#X obj 642 446 v p2-1_\$1;
#X obj 105 122 o-bit;
#X obj 218 122 o-bit;
#X obj 235 122 o-bit;
#X obj 122 122 o-bit;
#X obj 139 122 o-bit;
#X obj 156 122 o-bit;
#X obj 184 122 o-bit;
#X obj 201 122 o-bit;
#X obj 299 122 o-bit;
#X obj 316 122 o-bit;
#X obj 265 122 o-bit;
#X obj 282 122 o-bit;
#X obj 377 122 o-bit;
#X obj 394 122 o-bit;
#X obj 343 122 o-bit;
#X obj 360 122 o-bit;
#X obj 143 229 f;
#X floatatom 997 408 5 0 1023 0 - - -;
#X floatatom 582 -83 5 0 0 0 - - -;
#X obj 582 -57 sel 0 1 2 3 4 5 6 7 8 9 10 11 12 13 14 15;
#N canvas 236 86 492 635 ooooooooooooooooooooooooooooooooooooooooooooooo
0;
#X obj 234 78 & 1;
#X obj 221 106 & 2;
#X obj 208 133 & 4;
#X obj 195 158 & 8;
#X obj 182 185 & 16;
#X obj 169 79 & 32;
#X obj 156 104 & 64;
#X obj 143 130 & 128;
#X obj 130 155 & 256;
#X obj 117 181 & 512;
#X obj 39 54 t f f f f f f f f f f f f f f f f;
#X obj 38 30 inlet;
#X obj 104 87 & 1024;
#X obj 91 114 & 2048;
#X obj 78 141 & 4096;
#X obj 65 176 & 8192;
#X obj 52 204 & 16384;
#X obj 39 230 & 32768;
#X obj 39 265 outlet;
#X obj 52 294 outlet;
#X obj 65 318 outlet;
#X obj 78 347 outlet;
#X obj 91 379 outlet;
#X obj 104 408 outlet;
#X obj 117 216 outlet;
#X obj 130 245 outlet;
#X obj 143 269 outlet;
#X obj 157 298 outlet;
#X obj 169 330 outlet;
#X obj 182 359 outlet;
#X obj 195 226 outlet;
#X obj 208 255 outlet;
#X obj 221 287 outlet;
#X obj 234 316 outlet;
#X connect 0 0 33 0;
#X connect 1 0 32 0;
#X connect 2 0 31 0;
#X connect 3 0 30 0;
#X connect 4 0 29 0;
#X connect 5 0 28 0;
#X connect 6 0 27 0;
#X connect 7 0 26 0;
#X connect 8 0 25 0;
#X connect 9 0 24 0;
#X connect 10 0 17 0;
#X connect 10 1 16 0;
#X connect 10 2 15 0;
#X connect 10 3 14 0;
#X connect 10 4 13 0;
#X connect 10 5 12 0;
#X connect 10 6 9 0;
#X connect 10 7 8 0;
#X connect 10 8 7 0;
#X connect 10 9 6 0;
#X connect 10 10 5 0;
#X connect 10 11 4 0;
#X connect 10 12 3 0;
#X connect 10 13 2 0;
#X connect 10 14 1 0;
#X connect 10 15 0 0;
#X connect 11 0 10 0;
#X connect 12 0 23 0;
#X connect 13 0 22 0;
#X connect 14 0 21 0;
#X connect 15 0 20 0;
#X connect 16 0 19 0;
#X connect 17 0 18 0;
#X restore 958 214 pd ooooooooooooooooooooooooooooooooooooooooooooooo
;
#N canvas 276 234 1164 456 pack 0;
#X obj -114 49 inlet;
#X obj 301 19 inlet;
#X obj 339 19 inlet;
#X obj 339 49 t b f;
#X obj 384 19 inlet;
#X obj 384 49 t b f;
#X obj 425 19 inlet;
#X obj 425 49 t b f;
#X obj 517 17 inlet;
#X obj 517 50 t b f;
#X obj 560 18 inlet;
#X obj 560 51 t b f;
#X obj 603 18 inlet;
#X obj 603 51 t b f;
#X obj 646 19 inlet;
#X obj 646 52 t b f;
#X obj 118 302 expr $f1+$f2;
#X floatatom 118 330 5 0 0 0 - - -;
#X obj 118 362 outlet;
#X obj 299 175 expr $f1*pow(2 \, 7) + $f2*pow(2 \, 6) + $f3*pow(2 \,
5) +$f4*pow(2 \, 4) + $f5*pow(2 \, 3) + $f6*pow(2 \, 2) + $f7*2 + $f8
;
#X obj 299 243 t b f;
#X floatatom 299 217 5 0 0 0 - - -;
#X floatatom 301 48 5 0 0 0 - - -;
#X obj -72 48 inlet;
#X obj -72 78 t b f;
#X obj -27 48 inlet;
#X obj -27 78 t b f;
#X obj 14 48 inlet;
#X obj 14 78 t b f;
#X obj 106 46 inlet;
#X obj 106 79 t b f;
#X obj 149 47 inlet;
#X obj 149 80 t b f;
#X obj 192 47 inlet;
#X obj 192 80 t b f;
#X obj 235 48 inlet;
#X obj 235 81 t b f;
#X obj -114 120 expr $f1*pow(2 \, 15) + $f2*pow(2 \, 14) + $f3*pow(2
\, 13) +$f4*pow(2 \, 12) + $f5*pow(2 \, 11) + $f6*pow(2 \, 10) + $f7*pow(2
\, 9) + $f8*pow(2 \, 8);
#X connect 0 0 37 0;
#X connect 1 0 22 0;
#X connect 2 0 3 0;
#X connect 3 0 19 0;
#X connect 3 1 19 1;
#X connect 4 0 5 0;
#X connect 5 0 19 0;
#X connect 5 1 19 2;
#X connect 6 0 7 0;
#X connect 7 0 19 0;
#X connect 7 1 19 3;
#X connect 8 0 9 0;
#X connect 9 0 19 0;
#X connect 9 1 19 4;
#X connect 10 0 11 0;
#X connect 11 0 19 0;
#X connect 11 1 19 5;
#X connect 12 0 13 0;
#X connect 13 0 19 0;
#X connect 13 1 19 6;
#X connect 14 0 15 0;
#X connect 15 0 19 0;
#X connect 15 1 19 7;
#X connect 16 0 17 0;
#X connect 17 0 18 0;
#X connect 19 0 21 0;
#X connect 20 0 16 0;
#X connect 20 1 16 1;
#X connect 21 0 20 0;
#X connect 22 0 19 0;
#X connect 23 0 24 0;
#X connect 24 0 37 0;
#X connect 24 1 37 1;
#X connect 25 0 26 0;
#X connect 26 0 37 0;
#X connect 26 1 37 2;
#X connect 27 0 28 0;
#X connect 28 0 37 0;
#X connect 28 1 37 3;
#X connect 29 0 30 0;
#X connect 30 0 37 0;
#X connect 30 1 37 4;
#X connect 31 0 32 0;
#X connect 32 0 37 0;
#X connect 32 1 37 5;
#X connect 33 0 34 0;
#X connect 34 0 37 0;
#X connect 34 1 37 6;
#X connect 35 0 36 0;
#X connect 36 0 37 0;
#X connect 36 1 37 7;
#X connect 37 0 16 0;
#X restore 995 377 pd pack 0 0 0 0 0 0 0 0 0 0 0 0 0 0 0 0 0 0 0 0
0 0;
#X floatatom 413 139 5 0 65535 0 - - -;
#X msg 997 457 label \$1;
#X obj 997 429 makefilename %d;
#X obj 447 140 cnv 15 40 15 empty \$0-down 3584 5 8 0 10 -1 -262144
0;
#X obj 105 140 o-bit;
#X obj 218 140 o-bit;
#X obj 235 140 o-bit;
#X obj 122 140 o-bit;
#X obj 139 140 o-bit;
#X obj 156 140 o-bit;
#X obj 184 140 o-bit;
#X obj 201 140 o-bit;
#X obj 299 140 o-bit;
#X obj 316 140 o-bit;
#X obj 265 140 o-bit;
#X obj 282 140 o-bit;
#X obj 377 140 o-bit;
#X obj 394 140 o-bit;
#X obj 343 140 o-bit;
#X obj 360 140 o-bit;
#X obj 204 285 f;
#X obj 997 481 s \$0-down;
#X obj 1102 429 v p2-2_\$1;
#X connect 2 0 3 0;
#X connect 3 0 4 0;
#X connect 3 1 1 0;
#X connect 4 0 15 0;
#X connect 5 0 30 0;
#X connect 5 1 58 0;
#X connect 6 0 34 0;
#X connect 6 1 62 0;
#X connect 7 0 6 0;
#X connect 8 0 10 0;
#X connect 10 0 11 0;
#X connect 10 1 9 0;
#X connect 12 0 15 1;
#X connect 13 0 14 0;
#X connect 14 0 12 0;
#X connect 15 0 5 0;
#X connect 16 0 17 0;
#X connect 17 0 34 0;
#X connect 17 0 62 0;
#X connect 18 0 19 0;
#X connect 19 0 34 0;
#X connect 19 0 62 0;
#X connect 20 0 6 0;
#X connect 21 0 22 0;
#X connect 22 0 17 0;
#X connect 23 0 26 0;
#X connect 23 1 24 1;
#X connect 24 0 28 0;
#X connect 25 0 27 0;
#X connect 26 0 24 0;
#X connect 27 0 23 0;
#X connect 29 0 36 0;
#X connect 29 0 39 0;
#X connect 30 0 31 0;
#X connect 31 0 40 0;
#X connect 31 1 43 0;
#X connect 31 2 44 0;
#X connect 31 3 45 0;
#X connect 31 4 46 0;
#X connect 31 5 47 0;
#X connect 31 6 41 0;
#X connect 31 7 42 0;
#X connect 31 8 50 0;
#X connect 31 9 51 0;
#X connect 31 10 48 0;
#X connect 31 11 49 0;
#X connect 31 12 54 0;
#X connect 31 13 55 0;
#X connect 31 14 52 0;
#X connect 31 15 53 0;
#X connect 32 0 40 1;
#X connect 32 1 43 1;
#X connect 32 2 44 1;
#X connect 32 3 45 1;
#X connect 32 4 46 1;
#X connect 32 5 47 1;
#X connect 32 6 41 1;
#X connect 32 7 42 1;
#X connect 32 8 50 1;
#X connect 32 9 51 1;
#X connect 32 10 48 1;
#X connect 32 11 49 1;
#X connect 32 12 54 1;
#X connect 32 13 55 1;
#X connect 32 14 52 1;
#X connect 32 15 53 1;
#X connect 33 0 29 0;
#X connect 34 0 32 0;
#X connect 35 0 38 0;
#X connect 36 0 35 0;
#X connect 40 0 56 0;
#X connect 40 1 33 0;
#X connect 41 0 56 0;
#X connect 41 1 33 6;
#X connect 42 0 56 0;
#X connect 42 1 33 7;
#X connect 43 0 56 0;
#X connect 43 1 33 1;
#X connect 44 0 56 0;
#X connect 44 1 33 2;
#X connect 45 0 56 0;
#X connect 45 1 33 3;
#X connect 46 0 56 0;
#X connect 46 1 33 4;
#X connect 47 0 56 0;
#X connect 47 1 33 5;
#X connect 48 0 56 0;
#X connect 48 1 33 10;
#X connect 49 0 56 0;
#X connect 49 1 33 11;
#X connect 50 0 56 0;
#X connect 50 1 33 8;
#X connect 51 0 56 0;
#X connect 51 1 33 9;
#X connect 52 0 56 0;
#X connect 52 1 33 14;
#X connect 53 0 56 0;
#X connect 53 1 33 15;
#X connect 54 0 56 0;
#X connect 54 1 33 12;
#X connect 55 0 56 0;
#X connect 55 1 33 13;
#X connect 56 0 8 0;
#X connect 57 0 64 0;
#X connect 57 0 84 0;
#X connect 58 0 59 0;
#X connect 59 0 66 0;
#X connect 59 1 69 0;
#X connect 59 2 70 0;
#X connect 59 3 71 0;
#X connect 59 4 72 0;
#X connect 59 5 73 0;
#X connect 59 6 67 0;
#X connect 59 7 68 0;
#X connect 59 8 76 0;
#X connect 59 9 77 0;
#X connect 59 10 74 0;
#X connect 59 11 75 0;
#X connect 59 12 80 0;
#X connect 59 13 81 0;
#X connect 59 14 78 0;
#X connect 59 15 79 0;
#X connect 60 0 66 1;
#X connect 60 1 69 1;
#X connect 60 2 70 1;
#X connect 60 3 71 1;
#X connect 60 4 72 1;
#X connect 60 5 73 1;
#X connect 60 6 67 1;
#X connect 60 7 68 1;
#X connect 60 8 76 1;
#X connect 60 9 77 1;
#X connect 60 10 74 1;
#X connect 60 11 75 1;
#X connect 60 12 80 1;
#X connect 60 13 81 1;
#X connect 60 14 78 1;
#X connect 60 15 79 1;
#X connect 61 0 57 0;
#X connect 62 0 60 0;
#X connect 63 0 83 0;
#X connect 64 0 63 0;
#X connect 66 0 82 0;
#X connect 66 1 61 0;
#X connect 67 0 82 0;
#X connect 67 1 61 6;
#X connect 68 0 82 0;
#X connect 68 1 61 7;
#X connect 69 0 82 0;
#X connect 69 1 61 1;
#X connect 70 0 82 0;
#X connect 70 1 61 2;
#X connect 71 0 82 0;
#X connect 71 1 61 3;
#X connect 72 0 82 0;
#X connect 72 1 61 4;
#X connect 73 0 82 0;
#X connect 73 1 61 5;
#X connect 74 0 82 0;
#X connect 74 1 61 10;
#X connect 75 0 82 0;
#X connect 75 1 61 11;
#X connect 76 0 82 0;
#X connect 76 1 61 8;
#X connect 77 0 82 0;
#X connect 77 1 61 9;
#X connect 78 0 82 0;
#X connect 78 1 61 14;
#X connect 79 0 82 0;
#X connect 79 1 61 15;
#X connect 80 0 82 0;
#X connect 80 1 61 12;
#X connect 81 0 82 0;
#X connect 81 1 61 13;
#X connect 82 0 8 1;
#X coords 0 -1 1 1 390 58 1 100 100;
