#N canvas 251 22 761 712 10;
#X obj 137 34 inlet;
#X obj 137 66 sel 1;
#X obj 176 117 repeat 8;
#X obj 176 140 f;
#X obj 203 140 + 1;
#X obj 231 140 % 8;
#X obj 137 88 t b b b;
#X obj 176 161 t b f;
#X obj 203 265 gate 8 7 6 5 4 3 2 1;
#X obj 203 188 + 1;
#X obj 176 235 random 2;
#X obj 203 290 pack f f f f f f f f;
#X msg 230 339 set \$1 \$2 \$3 \$4 \$5 \$6 \$7 \$8;
#X obj 203 316 t a a;
#X msg 230 364 0 0 1 1 0 1 1 0;
#X obj 339 646 outlet~;
#X obj 209 529 *~ 0;
#X obj 209 488 mtof;
#X obj 209 448 loadbang;
#X obj 271 529 *~ 0;
#X obj 271 488 mtof;
#X obj 271 448 loadbang;
#X obj 333 529 *~ 0;
#X obj 333 488 mtof;
#X obj 333 448 loadbang;
#X obj 395 529 *~ 0;
#X obj 395 488 mtof;
#X obj 395 448 loadbang;
#X obj 339 566 +~;
#X obj 459 527 *~ 0;
#X obj 459 486 mtof;
#X obj 459 446 loadbang;
#X obj 521 527 *~ 0;
#X obj 521 486 mtof;
#X obj 521 446 loadbang;
#X obj 583 527 *~ 0;
#X obj 583 486 mtof;
#X obj 583 446 loadbang;
#X obj 645 527 *~ 0;
#X obj 645 486 mtof;
#X obj 645 446 loadbang;
#X obj 203 396 unpack f f f f f f f f;
#X msg 209 468 60;
#X msg 271 468 62;
#X msg 333 468 64;
#X msg 395 468 65;
#X msg 458 466 67;
#X msg 521 466 69;
#X msg 583 466 71;
#X msg 645 466 72;
#X obj 339 600 *~;
#X obj -44 254 envgen 194 140 1 0   ;
#X obj 22 166 loadbang;
#X msg -5 222 0 16.9072 0.892857 11.5464 0.492857 39.1752 0.3 12.3711
0;
#X obj -46 221 bng 15 250 50 0 empty empty empty 17 7 0 10 -262144
-1 -1;
#X obj -46 408 line~;
#X msg -24 176 dump;
#X obj 151 420 list prepend set;
#X obj 151 441 list trim;
#X msg 22 194 duration 80;
#X obj 204 57 f;
#X obj 232 57 + 1;
#X obj 204 83 sel 0;
#X obj 261 56 % 2;
#X obj 209 508 osc~;
#X obj 271 508 osc~;
#X obj 333 508 osc~;
#X obj 395 508 osc~;
#X obj 459 506 osc~;
#X obj 521 506 osc~;
#X obj 583 506 osc~;
#X obj 644 506 osc~;
#X obj 339 624 *~ 0.1;
#X connect 0 0 1 0;
#X connect 1 0 6 0;
#X connect 2 0 3 0;
#X connect 3 0 4 0;
#X connect 3 0 7 0;
#X connect 4 0 5 0;
#X connect 5 0 3 1;
#X connect 6 1 54 0;
#X connect 6 2 60 0;
#X connect 7 0 10 0;
#X connect 7 1 9 0;
#X connect 8 0 11 0;
#X connect 8 1 11 1;
#X connect 8 2 11 2;
#X connect 8 3 11 3;
#X connect 8 4 11 4;
#X connect 8 5 11 5;
#X connect 8 6 11 6;
#X connect 8 7 11 7;
#X connect 9 0 8 0;
#X connect 10 0 8 1;
#X connect 11 0 13 0;
#X connect 12 0 14 0;
#X connect 13 0 41 0;
#X connect 13 1 12 0;
#X connect 16 0 28 0;
#X connect 17 0 64 0;
#X connect 18 0 42 0;
#X connect 19 0 28 0;
#X connect 20 0 65 0;
#X connect 21 0 43 0;
#X connect 22 0 28 1;
#X connect 23 0 66 0;
#X connect 24 0 44 0;
#X connect 25 0 28 1;
#X connect 26 0 67 0;
#X connect 27 0 45 0;
#X connect 28 0 50 0;
#X connect 29 0 28 0;
#X connect 30 0 68 0;
#X connect 31 0 46 0;
#X connect 32 0 28 1;
#X connect 33 0 69 0;
#X connect 34 0 47 0;
#X connect 35 0 28 1;
#X connect 36 0 70 0;
#X connect 37 0 48 0;
#X connect 38 0 28 0;
#X connect 39 0 71 0;
#X connect 40 0 49 0;
#X connect 41 0 16 1;
#X connect 41 1 19 1;
#X connect 41 2 22 1;
#X connect 41 3 25 1;
#X connect 41 4 29 1;
#X connect 41 5 32 1;
#X connect 41 6 35 1;
#X connect 41 7 38 1;
#X connect 42 0 17 0;
#X connect 43 0 20 0;
#X connect 44 0 23 0;
#X connect 45 0 26 0;
#X connect 46 0 30 0;
#X connect 47 0 33 0;
#X connect 48 0 36 0;
#X connect 49 0 39 0;
#X connect 50 0 72 0;
#X connect 51 0 55 0;
#X connect 51 1 57 0;
#X connect 52 0 59 0;
#X connect 52 0 53 0;
#X connect 53 0 51 0;
#X connect 54 0 51 0;
#X connect 55 0 50 1;
#X connect 56 0 51 0;
#X connect 57 0 58 0;
#X connect 58 0 53 0;
#X connect 59 0 51 0;
#X connect 60 0 61 0;
#X connect 60 0 62 0;
#X connect 61 0 63 0;
#X connect 62 0 2 0;
#X connect 63 0 60 1;
#X connect 64 0 16 0;
#X connect 65 0 19 0;
#X connect 66 0 22 0;
#X connect 67 0 25 0;
#X connect 68 0 29 0;
#X connect 69 0 32 0;
#X connect 70 0 35 0;
#X connect 71 0 38 0;
#X connect 72 0 15 0;
