#N canvas 238 188 274 505 10;
#X obj 98 116 line~;
#X obj 98 227 *~;
#X obj 58 -8 t b b;
#X obj 98 192 osc~ 50;
#X obj 58 17 del 2;
#X msg 98 86 0 \, 1 2;
#X obj 58 -83 inlet;
#X obj 98 255 hip~ 1000;
#X msg 58 63 1 \, 0 100;
#X obj 98 324 outlet~;
#X obj 58 -50 sel 1;
#X obj 98 158 *~ 800;
#X obj 98 280 *~ 0.8;
#X obj 197 101 inlet;
#X connect 0 0 1 1;
#X connect 0 0 11 0;
#X connect 1 0 7 0;
#X connect 2 0 4 0;
#X connect 2 1 5 0;
#X connect 3 0 1 0;
#X connect 4 0 8 0;
#X connect 5 0 0 0;
#X connect 6 0 10 0;
#X connect 7 0 12 0;
#X connect 8 0 0 0;
#X connect 10 0 2 0;
#X connect 11 0 3 0;
#X connect 12 0 9 0;
#X connect 13 0 11 1;
