#N canvas 178 311 584 408 10;
#X obj 100 100 tgl 15 0 empty empty empty 17 7 0 10 -262144 -262144
-262144 0 1;
#X obj 100 -11 inlet;
#X obj 100 149 outlet;
#X obj 100 19 sel 0 1;
#X msg 117 73 color 15 15 15;
#X msg 100 49 color 0 0 0;
#X connect 0 0 2 0;
#X connect 1 0 3 0;
#X connect 3 0 5 0;
#X connect 3 1 4 0;
#X connect 4 0 0 0;
#X connect 5 0 0 0;
#X coords 0 -1 1 1 15 15 2 100 100;
