#N canvas 178 223 1035 575 10;
#X obj 20 167 ot_mono 2;
#X obj 460 273 r mono_2;
#X obj 460 301 sel 1;
#X obj 20 60 ot_count 1;
#X obj 163 6 loadbang;
#X obj 626 33 loadbang;
#X obj 20 19 tgl 30 0 empty empty empty 17 7 0 10 -262144 -1 -1 0 1
;
#X obj 483 191 ot_stereo 4;
#X obj 620 307 r stereo_4;
#X obj 620 333 unpack f f;
#X obj 550 334 osc~ 4000;
#X obj 550 374 *~ 0;
#X obj 585 374 *~ 0;
#X msg 872 159 43690 21925;
#X obj 872 135 loadbang;
#X msg 297 289 0 \, 1 3000;
#X msg 316 315 1 \, 0 3000;
#X obj 399 416 throw~ l;
#X obj 419 442 throw~ r;
#X obj 550 426 throw~ l;
#X obj 606 425 throw~ r;
#X obj 192 360 catch~ l;
#X obj 237 384 catch~ r;
#X obj 297 354 line~;
#X obj 237 413 *~;
#X obj 192 404 *~;
#X obj 192 446 dac~;
#X obj 398 345 osc~ 60;
#X obj 297 264 sel 0 5;
#X msg 391 102 32896;
#X obj 391 79 loadbang;
#X obj 460 349 line;
#X obj 398 386 *~ 0;
#X msg 460 322 1 \, 0 1200;
#X msg 20 -5 0;
#X obj 550 400 *~ 0.2;
#X obj 606 398 *~ 0.2;
#X obj 20 -28 sel 7;
#X msg 626 57 50;
#X obj 483 85 ot_count 3;
#X obj 20 -55 r count_1;
#X obj 297 234 r count_1;
#X msg 163 30 100;
#X connect 1 0 2 0;
#X connect 2 0 33 0;
#X connect 3 0 0 0;
#X connect 4 0 42 0;
#X connect 5 0 38 0;
#X connect 6 0 3 0;
#X connect 6 0 39 0;
#X connect 8 0 9 0;
#X connect 9 0 11 1;
#X connect 9 1 12 1;
#X connect 10 0 11 0;
#X connect 10 0 12 0;
#X connect 11 0 35 0;
#X connect 12 0 36 0;
#X connect 13 0 7 1;
#X connect 14 0 13 0;
#X connect 15 0 23 0;
#X connect 16 0 23 0;
#X connect 21 0 25 0;
#X connect 22 0 24 0;
#X connect 23 0 24 1;
#X connect 23 0 25 1;
#X connect 24 0 26 1;
#X connect 25 0 26 0;
#X connect 27 0 32 0;
#X connect 28 0 15 0;
#X connect 28 1 16 0;
#X connect 29 0 0 2;
#X connect 30 0 29 0;
#X connect 31 0 32 1;
#X connect 32 0 17 0;
#X connect 32 0 18 0;
#X connect 33 0 31 0;
#X connect 34 0 6 0;
#X connect 35 0 19 0;
#X connect 36 0 20 0;
#X connect 37 0 34 0;
#X connect 38 0 39 1;
#X connect 39 0 7 0;
#X connect 40 0 37 0;
#X connect 41 0 28 0;
#X connect 42 0 3 1;
