#N canvas 99 100 830 599 10;
#X obj 27 30 r stop;
#X obj 27 61 ot_count 1;
#X obj 261 10 r mono_2;
#X obj 261 63 ot_wave;
#X obj 261 135 dac~;
#X obj 261 35 sel 1;
#X obj 27 362 ot_mono 2;
#X obj 27 195 f;
#X obj 55 195 + 1;
#X obj 84 194 % 5;
#X floatatom 27 219 5 0 0 0 - - -;
#X obj 84 226 sel 0;
#X obj 129 194 unpack f f;
#X obj 84 290 sel 0;
#X obj 27 410 ot_mono 3;
#X obj 27 247 t f f f;
#X obj 168 283 sel 0;
#X obj 421 61 ot_wave;
#X obj 421 133 dac~;
#X obj 421 33 sel 1;
#X obj 421 8 r mono_3;
#X obj 560 69 ot_wave;
#X obj 560 141 dac~;
#X obj 560 41 sel 1;
#X obj 560 16 r mono_4;
#X obj 27 169 t b f;
#X obj 27 460 ot_mono 4;
#X obj 354 215 r count_1;
#X obj 354 240 t b;
#X obj 354 262 tgl 15 0 empty empty empty 17 7 0 10 -262144 -1 -1 1
1;
#X obj 354 286 sel 0 1;
#X obj 84 252 k_count 1 2;
#X obj 168 251 k_count 1 1;
#X obj 27 502 ot_stereo 5;
#X obj 475 241 r stereo_5;
#X obj 475 266 unpack f f;
#X obj 475 309 ot_wave;
#X obj 475 381 dac~;
#X obj 475 287 sel 1;
#X obj 521 374 ot_wave;
#X obj 526 289 sel 1;
#X msg 354 310 16 5;
#X msg 372 332 16 7;
#X msg 588 276 analog_kit/ana-clap.wav;
#X obj 588 251 loadbang;
#X obj 642 -5 loadbang;
#X msg 84 312 16 8;
#X msg 118 313 16 11;
#X msg 168 307 16 13;
#X msg 208 308 16 11;
#X msg 306 34 analog_kit/ana-kick-1.wav;
#X msg 474 34 analog_kit/ana-pulsekick.wav;
#X msg 646 37 analog_kit/ana-snare-4.wav;
#X msg 144 27 150;
#X obj 144 6 loadbang;
#X connect 0 0 1 0;
#X connect 1 0 25 0;
#X connect 2 0 5 0;
#X connect 3 0 4 0;
#X connect 3 0 4 1;
#X connect 5 0 3 0;
#X connect 6 0 14 0;
#X connect 7 0 8 0;
#X connect 7 0 10 0;
#X connect 8 0 9 0;
#X connect 9 0 7 1;
#X connect 10 0 15 0;
#X connect 11 0 31 0;
#X connect 11 0 32 0;
#X connect 12 0 9 1;
#X connect 13 0 46 0;
#X connect 13 1 47 0;
#X connect 15 0 6 0;
#X connect 15 1 11 0;
#X connect 16 0 48 0;
#X connect 16 1 49 0;
#X connect 17 0 18 0;
#X connect 17 0 18 1;
#X connect 19 0 17 0;
#X connect 20 0 19 0;
#X connect 21 0 22 0;
#X connect 21 0 22 1;
#X connect 23 0 21 0;
#X connect 24 0 23 0;
#X connect 25 0 7 0;
#X connect 25 1 26 0;
#X connect 26 0 33 0;
#X connect 27 0 28 0;
#X connect 28 0 29 0;
#X connect 29 0 30 0;
#X connect 30 0 41 0;
#X connect 30 1 42 0;
#X connect 31 0 13 0;
#X connect 32 0 16 0;
#X connect 34 0 35 0;
#X connect 35 0 38 0;
#X connect 35 1 40 0;
#X connect 36 0 37 0;
#X connect 38 0 36 0;
#X connect 39 0 37 1;
#X connect 40 0 39 0;
#X connect 41 0 26 1;
#X connect 42 0 26 1;
#X connect 43 0 36 1;
#X connect 43 0 39 1;
#X connect 44 0 43 0;
#X connect 45 0 52 0;
#X connect 45 0 51 0;
#X connect 45 0 50 0;
#X connect 46 0 12 0;
#X connect 46 0 6 1;
#X connect 47 0 12 0;
#X connect 47 0 6 1;
#X connect 48 0 14 1;
#X connect 49 0 14 1;
#X connect 50 0 3 1;
#X connect 51 0 17 1;
#X connect 52 0 21 1;
#X connect 53 0 1 1;
#X connect 54 0 53 0;
