#N canvas 438 83 768 516 10;
#X obj 20 77 r stop;
#X obj 20 108 ot_count 1;
#X obj 20 220 ot_mono 2;
#X obj 514 139 r mono_2;
#X obj 514 264 dac~;
#X obj 514 164 sel 1;
#X obj 20 269 ot_mono 3;
#X obj 430 347 ot_wave;
#X obj 430 419 dac~;
#X obj 430 319 sel 1;
#X obj 430 294 r mono_3;
#X obj 200 130 loadbang;
#X msg 200 158 16 11;
#X obj 268 138 loadbang;
#X msg 268 168 16 10;
#X msg 163 82 200;
#X msg 508 308 analog_kit/ana-clap.wav;
#X obj 514 192 ot_wave;
#X msg 588 159 analog_kit/ana-snare-1.wav;
#X obj 588 126 loadbang;
#X connect 0 0 1 0;
#X connect 0 0 15 0;
#X connect 1 0 2 0;
#X connect 2 0 6 0;
#X connect 3 0 5 0;
#X connect 5 0 17 0;
#X connect 7 0 8 0;
#X connect 7 0 8 1;
#X connect 9 0 7 0;
#X connect 10 0 9 0;
#X connect 11 0 12 0;
#X connect 12 0 2 1;
#X connect 13 0 14 0;
#X connect 14 0 6 1;
#X connect 15 0 1 1;
#X connect 16 0 7 1;
#X connect 17 0 4 0;
#X connect 17 0 4 1;
#X connect 18 0 17 1;
#X connect 19 0 18 0;
#X connect 19 0 16 0;
