#N canvas 268 22 939 580 10;
#N canvas 925 183 401 391 sound 0;
#X obj -272 141 sel 1;
#X obj -272 327 throw~ l;
#X obj -212 327 throw~ r;
#X obj -212 299 *~ 1;
#X obj -272 302 *~ 1;
#X obj -272 164 click~;
#X obj -214 101 % 2;
#X obj -272 211 *~ 1;
#X obj -272 187 *~ 0.5;
#X obj -163 198 unpack f f;
#X obj -272 99 r mono_3;
#X obj -163 173 r stereo_4;
#X obj -214 125 expr ($f1+0.5)/2;
#X obj -214 75 r step_1;
#X connect 0 0 5 0;
#X connect 3 0 2 0;
#X connect 4 0 1 0;
#X connect 5 0 8 0;
#X connect 6 0 12 0;
#X connect 7 0 3 0;
#X connect 7 0 4 0;
#X connect 8 0 7 0;
#X connect 9 0 4 1;
#X connect 9 1 3 1;
#X connect 10 0 0 0;
#X connect 11 0 9 0;
#X connect 12 0 7 1;
#X connect 13 0 6 0;
#X restore 185 426 pd sound 3;
#N canvas 724 279 419 523 sound 0;
#X obj -15 330 throw~ l;
#X obj 43 351 throw~ r;
#X obj 82 194 line;
#X obj 82 145 sel 1;
#X obj 82 221 *~;
#X obj -16 259 *~ 0.2;
#X msg 149 273 0 \, 1 2000;
#X obj 149 293 line~;
#X msg 130 253 0 0;
#X obj -15 305 *~;
#X obj 43 328 *~;
#X obj 130 231 sel 0 4;
#X obj -17 187 +~;
#X obj -17 210 *~;
#X msg 82 172 1 \, 0 20;
#X obj -67 121 osc~ 6000;
#X obj -100 136 osc~ 8000;
#X obj -16 232 *~ 0.2;
#X obj -40 95 osc~ 2000;
#X obj -66 68 * 3;
#X obj -90 68 * 4;
#X obj -40 67 * 1;
#X msg -41 35 2000;
#X obj -92 12 sel 12 16;
#X msg -91 37 3000;
#X obj 34 62 expr if($f1>8 && $f1<12 \, 0.2 \, 0.5);
#X obj 82 99 r mono_2;
#X obj -92 -11 r step_1;
#X obj 34 40 r step_1;
#X obj 130 207 r count_1;
#X connect 2 0 4 0;
#X connect 2 0 4 1;
#X connect 3 0 14 0;
#X connect 4 0 13 1;
#X connect 5 0 9 0;
#X connect 5 0 10 0;
#X connect 6 0 7 0;
#X connect 7 0 9 1;
#X connect 7 0 10 1;
#X connect 8 0 7 0;
#X connect 9 0 0 0;
#X connect 10 0 1 0;
#X connect 11 0 8 0;
#X connect 11 1 6 0;
#X connect 12 0 13 0;
#X connect 13 0 17 0;
#X connect 14 0 2 0;
#X connect 15 0 12 1;
#X connect 16 0 12 0;
#X connect 17 0 5 0;
#X connect 18 0 12 0;
#X connect 19 0 15 0;
#X connect 20 0 16 0;
#X connect 21 0 18 0;
#X connect 22 0 21 0;
#X connect 22 0 19 0;
#X connect 22 0 20 0;
#X connect 23 0 24 0;
#X connect 23 1 24 0;
#X connect 23 2 22 0;
#X connect 24 0 20 0;
#X connect 24 0 19 0;
#X connect 24 0 21 0;
#X connect 25 0 5 1;
#X connect 26 0 3 0;
#X connect 27 0 23 0;
#X connect 28 0 25 0;
#X connect 29 0 11 0;
#X restore 185 403 pd sound 2;
#N canvas 828 335 500 339 sound 0;
#X obj 154 82 line~;
#X msg 135 42 0 0;
#X obj 135 20 sel 0 6;
#X obj 90 42 noise~;
#X obj 90 85 *~;
#X obj 90 177 throw~ l;
#X obj 153 178 throw~ r;
#X obj 220 36 sel 1;
#X obj 274 36 sel 1;
#X obj 153 142 *~;
#X obj 90 142 *~;
#X obj 220 81 line~;
#X obj 274 79 line~;
#X msg 154 62 0 \, 1 3000;
#X msg 220 59 1 \, 0 50;
#X msg 274 57 1 \, 0 50;
#X obj 90 63 *~ 0.3;
#X obj 220 12 unpack f f;
#X obj 220 -10 r stereo_4;
#X obj 135 -4 r count_1;
#X connect 0 0 4 1;
#X connect 1 0 0 0;
#X connect 2 0 1 0;
#X connect 2 1 13 0;
#X connect 3 0 16 0;
#X connect 4 0 10 0;
#X connect 4 0 9 0;
#X connect 7 0 14 0;
#X connect 8 0 15 0;
#X connect 9 0 6 0;
#X connect 10 0 5 0;
#X connect 11 0 10 1;
#X connect 12 0 9 1;
#X connect 13 0 0 0;
#X connect 14 0 11 0;
#X connect 15 0 12 0;
#X connect 16 0 4 0;
#X connect 17 0 7 0;
#X connect 17 1 8 0;
#X connect 18 0 17 0;
#X connect 19 0 2 0;
#X restore 185 449 pd sound 4;
#X obj 188 320 ot_stereo 4;
#X obj 188 118 ot_count 1;
#X obj 324 405 catch~ l;
#X obj 345 437 catch~ r;
#X obj 324 462 dac~;
#X obj 188 228 ot_mono 2;
#X obj 259 402 loadbang;
#X msg 259 426 \; pd dsp 1;
#X obj 188 276 ot_mono 3;
#X obj 188 49 sel 20;
#X obj 188 96 tgl 15 0 empty empty empty 17 7 0 10 -262144 -1 -1 1
1;
#X msg 188 72 0;
#X obj 188 24 r count_1;
#X msg 591 156 43609;
#X obj 591 132 sel 0 10;
#X msg 613 178 48127;
#X msg 651 132 0;
#X obj 591 105 moses 20;
#X obj 591 80 r count_1;
#X obj 692 231 sel 0;
#X obj 692 207 % 4;
#X msg 692 253 65023;
#X msg 719 274 65453;
#X msg 760 203 0;
#X obj 692 183 moses 12;
#X obj 692 158 r count_1;
#X msg 625 357 10954 10805;
#X msg 670 381 0 0;
#X obj 625 330 moses 15;
#X obj 625 304 r count_1;
#X obj 329 32 loadbang;
#X msg 329 67 200;
#X connect 4 0 8 0;
#X connect 5 0 7 0;
#X connect 6 0 7 1;
#X connect 8 0 11 0;
#X connect 9 0 10 0;
#X connect 11 0 3 0;
#X connect 12 0 14 0;
#X connect 13 0 4 0;
#X connect 14 0 13 0;
#X connect 15 0 12 0;
#X connect 16 0 8 2;
#X connect 17 0 16 0;
#X connect 17 1 18 0;
#X connect 18 0 8 2;
#X connect 19 0 8 2;
#X connect 20 0 17 0;
#X connect 20 1 19 0;
#X connect 21 0 20 0;
#X connect 22 0 24 0;
#X connect 22 1 25 0;
#X connect 23 0 22 0;
#X connect 24 0 11 2;
#X connect 25 0 11 2;
#X connect 26 0 11 2;
#X connect 27 0 23 0;
#X connect 27 1 26 0;
#X connect 28 0 27 0;
#X connect 29 0 3 1;
#X connect 30 0 3 1;
#X connect 31 0 29 0;
#X connect 31 1 30 0;
#X connect 32 0 31 0;
#X connect 33 0 34 0;
#X connect 34 0 4 1;
