#N canvas 549 166 643 513 10;
#X obj 20 30 r stop;
#X obj 20 61 ot_count 1;
#X obj 85 438 dac~;
#X obj 20 167 ot_mono 2;
#X floatatom 430 133 5 0 0 0 - - -;
#X floatatom 430 188 5 0 0 0 - - -;
#X floatatom 430 328 5 0 0 0 - - -;
#X obj 147 286 r mono_2;
#X obj 85 358 osc~ 440;
#X obj 85 399 *~;
#X obj 430 161 % 5;
#X obj 430 221 sel 0 1 2 3 4;
#X msg 460 279 35768;
#X obj 163 11 loadbang;
#X obj 147 314 sel 1;
#X obj 147 381 *~;
#X obj 147 357 line~;
#X msg 490 245 39305;
#X obj 220 274 r count_1;
#X obj 220 300 % 2;
#X obj 220 325 sel 0 1;
#X msg 220 352 0.2;
#X msg 239 376 0.7;
#X obj 147 408 *~ 0;
#X obj 85 253 % 2;
#X obj 85 278 sel 0 1;
#X msg 104 329 100;
#X msg 85 305 440;
#X msg 430 274 52360;
#X msg 445 249 52360;
#X msg 475 306 35775;
#X msg 147 335 1 \, 0 150;
#X msg 163 35 200;
#X obj 430 110 r count_1;
#X obj 85 227 r step_1;
#X connect 0 0 1 0;
#X connect 1 0 3 0;
#X connect 4 0 10 0;
#X connect 5 0 11 0;
#X connect 6 0 3 2;
#X connect 7 0 14 0;
#X connect 8 0 9 0;
#X connect 9 0 2 0;
#X connect 9 0 2 1;
#X connect 10 0 5 0;
#X connect 11 0 28 0;
#X connect 11 1 29 0;
#X connect 11 2 12 0;
#X connect 11 3 30 0;
#X connect 11 4 17 0;
#X connect 12 0 6 0;
#X connect 13 0 32 0;
#X connect 14 0 31 0;
#X connect 15 0 23 0;
#X connect 16 0 15 0;
#X connect 16 0 15 1;
#X connect 17 0 6 0;
#X connect 18 0 19 0;
#X connect 19 0 20 0;
#X connect 20 0 21 0;
#X connect 20 1 22 0;
#X connect 21 0 23 1;
#X connect 22 0 23 1;
#X connect 23 0 9 1;
#X connect 24 0 25 0;
#X connect 25 0 27 0;
#X connect 25 1 26 0;
#X connect 26 0 8 0;
#X connect 27 0 8 0;
#X connect 28 0 6 0;
#X connect 29 0 6 0;
#X connect 30 0 6 0;
#X connect 31 0 16 0;
#X connect 32 0 1 1;
#X connect 33 0 4 0;
#X connect 34 0 24 0;
