#N canvas 549 166 485 472 10;
#X obj 20 22 r stop;
#X obj 20 53 ot_count 1;
#X obj 18 311 dac~;
#X obj 20 167 ot_mono 2;
#X floatatom 238 -56 5 0 0 0 - - -;
#X floatatom 238 -1 5 0 0 0 - - -;
#X floatatom 238 139 5 0 0 0 - - -;
#X obj 80 214 r mono_2;
#X msg 238 85 34952;
#X obj 18 232 osc~ 440;
#X obj 18 273 *~;
#X obj 238 -28 % 5;
#X obj 238 32 sel 0 1 2 3 4;
#X msg 253 60 34952;
#X msg 268 90 35768;
#X obj 163 2 loadbang;
#X obj 80 242 sel 1;
#X msg 80 263 1 \, 0 150;
#X obj 80 309 *~;
#X obj 80 285 line~;
#X msg 283 117 35768;
#X msg 298 56 39305;
#X obj 238 -79 r count_1;
#X msg 163 26 100;
#X connect 0 0 1 0;
#X connect 1 0 3 0;
#X connect 4 0 11 0;
#X connect 5 0 12 0;
#X connect 6 0 3 2;
#X connect 7 0 16 0;
#X connect 8 0 6 0;
#X connect 9 0 10 0;
#X connect 10 0 2 0;
#X connect 10 0 2 1;
#X connect 11 0 5 0;
#X connect 12 0 8 0;
#X connect 12 1 13 0;
#X connect 12 2 14 0;
#X connect 12 3 20 0;
#X connect 12 4 21 0;
#X connect 13 0 6 0;
#X connect 14 0 6 0;
#X connect 15 0 23 0;
#X connect 16 0 17 0;
#X connect 17 0 19 0;
#X connect 18 0 10 1;
#X connect 19 0 18 0;
#X connect 19 0 18 1;
#X connect 20 0 6 0;
#X connect 21 0 6 0;
#X connect 22 0 4 0;
#X connect 23 0 1 1;
