#N canvas 421 62 526 658 10;
#X obj 4 -16 ot_count 1;
#X obj 147 -77 loadbang;
#X obj 4 92 ot_stereo 2;
#X obj 203 218 unpack f f;
#X obj 203 187 r stereo_2;
#X floatatom 203 249 5 0 0 0 - - -;
#X floatatom 300 250 5 0 0 0 - - -;
#X obj 86 337 osc~ 4000;
#X obj 86 423 *~ 0;
#X obj 163 423 *~ 0;
#X obj 86 454 dac~;
#X obj 203 279 sel 1;
#X obj 203 341 line;
#X obj 300 280 sel 1;
#X obj 300 342 line;
#X msg 147 -46 200;
#X obj 203 382 * 0;
#X obj 406 400 line;
#X obj 300 382 * 0;
#X obj 438 288 r stop_1;
#X msg 438 319 0 0;
#X msg 373 312 0 \, 1 6000;
#X msg 406 353 1 \, 0 6000;
#X msg 203 310 0.2 \, 0 50;
#X msg 300 311 0.2 \, 0 50;
#X obj 373 263 sel 1 6;
#X obj 373 221 r count_1;
#X msg 377 48 4372 4392;
#X obj 377 25 loadbang;
#X connect 0 0 2 0;
#X connect 1 0 15 0;
#X connect 3 0 5 0;
#X connect 3 1 6 0;
#X connect 4 0 3 0;
#X connect 5 0 11 0;
#X connect 6 0 13 0;
#X connect 7 0 8 0;
#X connect 7 0 9 0;
#X connect 8 0 10 0;
#X connect 9 0 10 1;
#X connect 11 0 23 0;
#X connect 12 0 16 0;
#X connect 13 0 24 0;
#X connect 14 0 18 0;
#X connect 15 0 0 1;
#X connect 16 0 8 1;
#X connect 17 0 16 1;
#X connect 17 0 18 1;
#X connect 18 0 9 1;
#X connect 19 0 20 0;
#X connect 20 0 17 0;
#X connect 21 0 17 0;
#X connect 22 0 17 0;
#X connect 23 0 12 0;
#X connect 24 0 14 0;
#X connect 25 0 21 0;
#X connect 25 1 22 0;
#X connect 26 0 25 0;
#X connect 27 0 2 1;
#X connect 28 0 27 0;
