#N canvas 387 23 959 751 10;
#X obj 20 27 r stop;
#X obj 20 58 ot_count 1;
#X obj 432 697 dac~;
#X obj 20 167 ot_mono 2;
#X floatatom 190 57 5 0 0 0 - - -;
#X obj 376 479 r mono_2;
#X obj 376 505 tgl 15 0 empty empty empty 17 7 0 10 -262144 -1 -1 1
1;
#X obj 376 532 ot_bassdrums;
#X obj 20 215 ot_mono 3;
#X obj 462 510 r mono_3;
#X obj 462 537 tgl 15 0 empty empty empty 17 7 0 10 -262144 -1 -1 0
1;
#X obj 462 563 ot_snare;
#X obj 20 265 ot_mono 4;
#X obj 816 471 tgl 15 0 empty empty empty 17 7 0 10 -262144 -1 -1 1
1;
#X obj 816 444 r mono_4;
#X obj 376 586 throw~ all;
#X obj 462 586 throw~ all;
#X obj 432 658 catch~ all;
#X obj 190 104 sel 0 1;
#X msg 190 127 100;
#X obj 190 78 expr if($f1%10>7 \, 1 \, 0);
#X obj 572 32 loadbang;
#X msg 572 56 \; pd dsp 1;
#X obj 545 561 tgl 15 0 empty empty empty 17 7 0 10 -262144 -1 -1 0
1;
#X obj 545 586 ot_perc;
#X obj 545 643 throw~ l;
#X obj 611 562 tgl 15 0 empty empty empty 17 7 0 10 -262144 -1 -1 0
1;
#X obj 545 534 unpack f f;
#X obj 20 309 ot_stereo 5;
#X obj 612 643 throw~ r;
#X obj 394 621 catch~ l;
#X obj 460 622 catch~ r;
#X obj 612 587 ot_perc;
#X msg 509 119 0;
#X obj 425 396 sel 0 1;
#X obj 545 509 r stereo_5;
#X obj 756 610 *~;
#X obj 756 665 throw~ all;
#X obj 756 573 bp~ 4000 10;
#X obj 756 548 osc~ 440;
#X obj 816 518 t b b;
#X msg 816 547 1;
#X obj 851 543 del 100;
#X msg 851 566 0;
#X obj 816 494 sel 1;
#X msg 486 267 43741;
#X msg 423 247 32896;
#X obj 545 618 *~;
#X obj 425 369 expr if($f1>20 \, 1 \, 0);
#X msg 425 422 42922 42873;
#X msg 444 442 53244 16371;
#X floatatom 643 488 5 0 0 0 - - -;
#X obj 643 564 line~;
#X obj 612 617 *~;
#X floatatom 425 346 5 0 0 0 - - -;
#X msg 572 146 32768;
#X msg 704 198 34824;
#X floatatom 509 71 5 0 0 0 - - -;
#X floatatom 509 148 5 0 0 0 - - -;
#X obj 509 96 k_event 0 7;
#X obj 572 120 k_event 7 8;
#X obj 635 149 k_event 8 10;
#X msg 635 172 0;
#X floatatom 692 48 5 0 0 0 - - -;
#X msg 755 117 128;
#X msg 692 117 0;
#X floatatom 655 272 5 0 0 0 - - -;
#X obj 654 323 sel 7 10;
#X obj 573 432 *~;
#X obj 573 455 throw~ all;
#X obj 646 399 line;
#X msg 719 372 0 100;
#X msg 646 372 0 \, 0.1 1000;
#X obj 573 371 noise~;
#X obj 573 408 bp~ 100 10;
#X obj 574 347 line;
#X msg 643 542 0 \, 0.5 6000;
#X floatatom 423 197 5 0 0 0 - - -;
#X obj 643 515 sel 2;
#X msg 686 566 0;
#X obj 655 294 moses 10;
#X obj 726 273 expr if($f1%5==1 \, 1 \, 0) \; if($f1%5==4 \, 2 \, 0)
\;;
#X obj 726 310 expr $f1+$f2;
#X obj 726 336 sel 1 2;
#X msg 574 322 0 \, 4000 4000;
#X obj 692 69 k_event 0 9;
#X obj 723 513 r stop_1;
#X msg 899 143 56747;
#X obj 755 92 k_event 9 15;
#X obj 824 114 k_event 15 20;
#X msg 779 195 43690;
#X obj 756 638 *~ 0.5;
#X obj 423 223 k_event 0 6;
#X obj 486 243 k_event 6 12;
#X msg 824 143 32896;
#X msg 555 266 43690;
#X obj 704 173 k_event 10 15;
#X obj 20 380 ot_mono 6;
#X obj 89 523 ot_tone;
#X obj 89 468 r mono_6;
#X obj 89 495 tgl 15 0 empty empty empty 17 7 0 10 -262144 -1 -1 0
1;
#X obj 89 550 throw~ all;
#X obj 190 34 r count_1;
#X obj 692 25 r count_1;
#X obj 509 48 r count_1;
#X obj 655 249 r count_1;
#X obj 643 465 r count_1;
#X obj 425 322 r count_1;
#X obj 423 174 r count_1;
#X msg 277 489 8329;
#X obj 277 464 loadbang;
#X floatatom 835 177 5 0 0 0 - - -;
#X obj 839 209 s pattern_3;
#X obj 507 179 s pattern_2;
#X connect 0 0 1 0;
#X connect 1 0 3 0;
#X connect 3 0 8 0;
#X connect 4 0 20 0;
#X connect 5 0 6 0;
#X connect 6 0 7 0;
#X connect 7 0 15 0;
#X connect 8 0 12 0;
#X connect 9 0 10 0;
#X connect 10 0 11 0;
#X connect 11 0 16 0;
#X connect 12 0 28 0;
#X connect 13 0 44 0;
#X connect 14 0 13 0;
#X connect 17 0 2 0;
#X connect 17 0 2 1;
#X connect 18 0 19 0;
#X connect 19 0 1 1;
#X connect 20 0 18 0;
#X connect 21 0 22 0;
#X connect 23 0 24 0;
#X connect 24 0 47 0;
#X connect 26 0 32 0;
#X connect 27 0 23 0;
#X connect 27 1 26 0;
#X connect 28 0 97 0;
#X connect 30 0 2 0;
#X connect 31 0 2 1;
#X connect 32 0 53 0;
#X connect 33 0 58 0;
#X connect 34 0 49 0;
#X connect 34 1 50 0;
#X connect 35 0 27 0;
#X connect 36 0 91 0;
#X connect 38 0 36 0;
#X connect 39 0 38 0;
#X connect 40 0 41 0;
#X connect 40 1 42 0;
#X connect 41 0 36 1;
#X connect 42 0 43 0;
#X connect 43 0 36 1;
#X connect 44 0 40 0;
#X connect 45 0 12 2;
#X connect 46 0 12 2;
#X connect 47 0 25 0;
#X connect 48 0 34 0;
#X connect 49 0 28 1;
#X connect 50 0 28 1;
#X connect 51 0 78 0;
#X connect 52 0 47 1;
#X connect 52 0 53 1;
#X connect 53 0 29 0;
#X connect 54 0 48 0;
#X connect 55 0 58 0;
#X connect 56 0 58 0;
#X connect 57 0 59 0;
#X connect 58 0 113 0;
#X connect 59 0 33 0;
#X connect 59 1 60 0;
#X connect 60 0 55 0;
#X connect 60 1 61 0;
#X connect 61 0 62 0;
#X connect 61 1 96 0;
#X connect 62 0 58 0;
#X connect 63 0 85 0;
#X connect 64 0 111 0;
#X connect 65 0 111 0;
#X connect 66 0 80 0;
#X connect 67 0 84 0;
#X connect 67 0 72 0;
#X connect 67 1 71 0;
#X connect 68 0 69 0;
#X connect 70 0 68 1;
#X connect 71 0 70 0;
#X connect 72 0 70 0;
#X connect 73 0 74 0;
#X connect 74 0 68 0;
#X connect 75 0 74 1;
#X connect 76 0 52 0;
#X connect 77 0 92 0;
#X connect 78 0 76 0;
#X connect 79 0 52 0;
#X connect 80 0 67 0;
#X connect 80 1 81 0;
#X connect 81 0 82 0;
#X connect 81 1 82 1;
#X connect 82 0 83 0;
#X connect 83 0 72 0;
#X connect 83 0 84 0;
#X connect 83 1 71 0;
#X connect 84 0 75 0;
#X connect 85 0 65 0;
#X connect 85 1 88 0;
#X connect 86 0 79 0;
#X connect 86 0 71 0;
#X connect 87 0 111 0;
#X connect 88 0 64 0;
#X connect 88 1 89 0;
#X connect 89 0 94 0;
#X connect 89 1 87 0;
#X connect 90 0 58 0;
#X connect 91 0 37 0;
#X connect 92 0 46 0;
#X connect 92 1 93 0;
#X connect 93 0 45 0;
#X connect 93 1 95 0;
#X connect 94 0 111 0;
#X connect 95 0 12 2;
#X connect 96 0 56 0;
#X connect 96 1 90 0;
#X connect 98 0 101 0;
#X connect 99 0 100 0;
#X connect 100 0 98 0;
#X connect 102 0 4 0;
#X connect 103 0 63 0;
#X connect 104 0 57 0;
#X connect 105 0 66 0;
#X connect 106 0 51 0;
#X connect 107 0 54 0;
#X connect 108 0 77 0;
#X connect 109 0 97 2;
#X connect 110 0 109 0;
#X connect 111 0 112 0;
