#N canvas 346 91 826 628 10;
#X obj 18 14 r stop;
#X obj 18 45 ot_count 1;
#X obj 23 449 r mono_2;
#X obj 23 474 sel 1;
#X obj 152 480 sel 1;
#X obj 288 482 sel 1;
#X obj 152 455 r mono_3;
#X obj 288 457 r mono_4;
#X obj 23 574 throw~ all;
#X obj 152 580 throw~ all;
#X obj 288 582 throw~ all;
#X obj 184 78 catch~ all;
#X obj 184 126 dac~;
#X obj 18 157 ot_mono 2;
#X obj 417 482 sel 1;
#X obj 417 581 throw~ all;
#X obj 417 457 r mono_5;
#X obj 422 251 ot_ptn 1 4;
#X obj 420 204 ot_ptn 1 3;
#X obj 418 154 ot_ptn 1 2;
#X obj 424 301 ot_ptn 1 5;
#X obj 18 205 ot_mono 3;
#X obj 18 253 ot_mono 4;
#X obj 18 302 ot_mono 5;
#X obj 23 502 ot_wave;
#X obj 18 353 ot_stereo 6;
#X obj 422 352 ot_ptn2 1 6;
#X obj 549 441 r stereo_6;
#X obj 549 464 unpack f f;
#X obj 549 487 sel 1;
#X obj 606 488 sel 1;
#X obj 664 399 loadbang;
#X msg 664 426 \; pd dsp 1;
#X obj 152 508 ot_wave;
#X obj 288 510 ot_wave;
#X obj 417 510 ot_wave;
#X obj 549 510 ot_wave;
#X obj 678 509 ot_wave;
#X obj 590 124 k_piano;
#X msg 590 90 1;
#X msg 621 89 3;
#X msg 655 90 5;
#X msg 688 90 7;
#X obj 590 57 sel 0 1 2 3;
#X obj 590 13 sel 1;
#X obj 590 260 mtof;
#X obj 590 238 t f b;
#X obj 590 403 throw~ all;
#X obj 590 368 *~;
#X obj 644 266 line~;
#X obj 718 -8 r count_1;
#X obj 718 16 change;
#X obj 718 62 random 2;
#X obj 743 91 + 2;
#X obj 718 41 t b;
#X obj 590 288 syn-classicsynth /a;
#X obj 590 -12 r mono_3;
#X msg 644 246 0.3 \, 0 600;
#X obj 590 34 random 5;
#X msg 717 89 8;
#X obj 403 21 k_record 60;
#X obj 261 51 k_vol;
#X obj 549 582 throw~ l;
#X obj 678 581 throw~ r;
#X obj 166 10 catch~ l;
#X obj 295 9 catch~ r;
#X connect 0 0 1 0;
#X connect 1 0 13 0;
#X connect 2 0 3 0;
#X connect 3 0 24 0;
#X connect 4 0 33 0;
#X connect 5 0 34 0;
#X connect 6 0 4 0;
#X connect 7 0 5 0;
#X connect 11 0 12 0;
#X connect 11 0 12 1;
#X connect 11 0 61 0;
#X connect 11 0 60 0;
#X connect 11 0 60 1;
#X connect 13 0 21 0;
#X connect 14 0 35 0;
#X connect 16 0 14 0;
#X connect 21 0 22 0;
#X connect 22 0 23 0;
#X connect 23 0 25 0;
#X connect 24 0 8 0;
#X connect 27 0 28 0;
#X connect 28 0 29 0;
#X connect 28 1 30 0;
#X connect 29 0 36 0;
#X connect 30 0 37 0;
#X connect 31 0 32 0;
#X connect 33 0 9 0;
#X connect 34 0 10 0;
#X connect 35 0 15 0;
#X connect 36 0 62 0;
#X connect 37 0 63 0;
#X connect 38 0 46 0;
#X connect 39 0 38 0;
#X connect 40 0 38 0;
#X connect 41 0 38 0;
#X connect 42 0 38 0;
#X connect 43 0 39 0;
#X connect 43 1 40 0;
#X connect 43 2 41 0;
#X connect 43 3 42 0;
#X connect 43 4 59 0;
#X connect 44 0 58 0;
#X connect 45 0 55 0;
#X connect 46 0 45 0;
#X connect 46 1 57 0;
#X connect 48 0 47 0;
#X connect 49 0 48 1;
#X connect 50 0 51 0;
#X connect 51 0 54 0;
#X connect 52 0 53 0;
#X connect 53 0 38 1;
#X connect 54 0 52 0;
#X connect 55 0 48 0;
#X connect 57 0 49 0;
#X connect 58 0 43 0;
#X connect 59 0 38 0;
#X connect 64 0 12 0;
#X connect 64 0 60 0;
#X connect 65 0 12 1;
#X connect 65 0 60 1;
