#N canvas 387 221 760 438 10;
#X obj 20 29 r stop;
#X obj 20 60 ot_count 1;
#X obj 29 370 dac~;
#X obj 20 167 ot_mono 2;
#X floatatom 403 36 5 0 0 0 - - -;
#X floatatom 403 121 5 0 0 0 - - -;
#X obj 91 218 r mono_2;
#X obj 29 290 osc~ 440;
#X obj 29 331 *~;
#X obj 163 11 loadbang;
#X obj 91 246 sel 1;
#X obj 91 313 *~;
#X obj 91 289 line~;
#X msg 163 35 200;
#X obj 403 63 t b;
#X obj 403 92 f;
#X obj 432 91 + 1;
#X obj 462 92 % 8;
#X obj 403 143 expr 65535-(pow(2 \, ($f1*2)))-(pow(2 \, (($f1+1)*2)))
;
#X msg 91 267 1 \, 0 100;
#X obj 403 13 r count_1;
#X connect 0 0 1 0;
#X connect 1 0 3 0;
#X connect 4 0 14 0;
#X connect 5 0 18 0;
#X connect 6 0 10 0;
#X connect 7 0 8 0;
#X connect 8 0 2 0;
#X connect 8 0 2 1;
#X connect 9 0 13 0;
#X connect 10 0 19 0;
#X connect 11 0 8 1;
#X connect 12 0 11 0;
#X connect 12 0 11 1;
#X connect 13 0 1 1;
#X connect 14 0 15 0;
#X connect 15 0 16 0;
#X connect 15 0 5 0;
#X connect 16 0 17 0;
#X connect 17 0 15 1;
#X connect 18 0 3 2;
#X connect 19 0 12 0;
#X connect 20 0 4 0;
