#N canvas 474 280 698 473 10;
#X obj 20 77 r stop;
#X obj 20 108 ot_count 1;
#X obj 20 220 ot_mono 2;
#X obj 348 49 % 2;
#X floatatom 348 27 5 0 0 0 - - -;
#X floatatom 348 72 5 0 0 0 - - -;
#X obj 348 96 sel 0 1;
#X floatatom 348 152 5 0 0 0 - - -;
#X obj 48 297 r mono_2;
#X obj 48 350 ot_wave;
#X obj 48 422 dac~;
#X obj 348 4 r count_1;
#X obj 48 322 sel 1;
#X obj 249 77 % 2;
#X floatatom 249 55 5 0 0 0 - - -;
#X floatatom 249 100 5 0 0 0 - - -;
#X obj 249 124 sel 0 1;
#X obj 249 32 r count_1;
#X msg 249 151 16 8;
#X msg 398 123 48059;
#X msg 348 123 43690;
#X obj 287 184 spigot;
#X obj 405 187 spigot;
#X obj 463 116 tgl 15 0 empty empty empty 17 7 0 10 -262144 -1 -1 1
1;
#X obj 461 140 invert;
#X obj 464 86 loadbang;
#X msg 163 79 200;
#X obj 162 59 loadbang;
#X msg 287 151 16 5;
#X connect 0 0 1 0;
#X connect 1 0 2 0;
#X connect 3 0 5 0;
#X connect 4 0 3 0;
#X connect 5 0 6 0;
#X connect 6 0 20 0;
#X connect 6 1 19 0;
#X connect 7 0 22 0;
#X connect 8 0 12 0;
#X connect 9 0 10 0;
#X connect 9 0 10 1;
#X connect 11 0 4 0;
#X connect 12 0 9 0;
#X connect 13 0 15 0;
#X connect 14 0 13 0;
#X connect 15 0 16 0;
#X connect 16 0 18 0;
#X connect 16 1 28 0;
#X connect 17 0 14 0;
#X connect 18 0 21 0;
#X connect 19 0 7 0;
#X connect 20 0 7 0;
#X connect 21 0 2 1;
#X connect 22 0 2 2;
#X connect 23 0 21 1;
#X connect 23 0 24 0;
#X connect 24 0 22 1;
#X connect 25 0 23 0;
#X connect 26 0 1 1;
#X connect 27 0 26 0;
#X connect 28 0 21 0;
